<svg width="16" height="16" viewBox="0 0 16 16" fill="none" xmlns="http://www.w3.org/2000/svg">
<path d="M0.5 9.32473C0.776142 9.32473 1 9.53409 1 9.79235V12.1305C1 12.647 1.44772 13.0657 2 13.0657H14C14.5523 13.0657 15 12.647 15 12.1305V9.79235C15 9.53409 15.2239 9.32473 15.5 9.32473C15.7761 9.32473 16 9.53409 16 9.79235V12.1305C16 13.1635 15.1046 14.001 14 14.001H2C0.895431 14.001 0 13.1635 0 12.1305V9.79235C0 9.53409 0.223858 9.32473 0.5 9.32473Z" fill="#858585"/>
<path d="M7.64645 11.1518C7.84171 11.3344 8.15829 11.3344 8.35355 11.1518L11.3536 8.34601C11.5488 8.16339 11.5488 7.86731 11.3536 7.68469C11.1583 7.50207 10.8417 7.50207 10.6464 7.68469L8.5 9.69216V1.4686C8.5 1.21034 8.27614 1.00098 8 1.00098C7.72386 1.00098 7.5 1.21034 7.5 1.4686V9.69216L5.35355 7.68469C5.15829 7.50207 4.84171 7.50207 4.64645 7.68469C4.45118 7.86731 4.45118 8.16339 4.64645 8.34601L7.64645 11.1518Z" fill="#858585"/>
</svg>
