<svg width="81" height="80" viewBox="0 0 81 80" fill="none" xmlns="http://www.w3.org/2000/svg">
<g clip-path="url(#clip0_297_172)">
<path d="M2.55041 69.4946H2.16753C1.44435 69.4946 0.858105 68.9084 0.858105 68.1852V54.3775C0.858105 53.6543 1.44435 53.0681 2.16753 53.0681H21.0449C21.7681 53.0681 22.3543 53.6543 22.3543 54.3775V61.2813V68.1852C22.3543 68.9084 21.7681 69.4946 21.0449 69.4946H20.6624L21.2126 68.8785L12.3912 61.0018C11.8833 60.5483 11.1147 60.5527 10.6119 61.0119L1.99316 68.8845L2.55041 69.4946ZM11.5092 62.3593L19.5003 69.4946H3.69767L11.5092 62.3593Z" stroke="white" stroke-width="1.6"/>
<path d="M31.0026 69.4946H30.6197C29.8965 69.4946 29.3103 68.9084 29.3103 68.1852V54.3775C29.3103 53.6543 29.8965 53.0681 30.6197 53.0681H49.4971C50.2202 53.0681 50.8065 53.6543 50.8065 54.3775V68.1852C50.8065 68.9084 50.2202 69.4946 49.4971 69.4946H49.1146L49.6647 68.8785L40.8433 61.0018C40.3355 60.5483 39.5668 60.5527 39.0641 61.0119L30.4453 68.8845L31.0026 69.4946ZM39.9614 62.3593L47.9525 69.4946H32.1498L39.9614 62.3593Z" stroke="white" stroke-width="1.6"/>
<path d="M59.4542 69.4946H59.0713C58.3482 69.4946 57.7619 68.9084 57.7619 68.1852V54.3775C57.7619 53.6543 58.3482 53.0681 59.0713 53.0681H77.9487C78.6719 53.0681 79.2581 53.6543 79.2581 54.3775V68.1852C79.2581 68.9084 78.6719 69.4946 77.9487 69.4946H77.5662L78.1164 68.8785L69.295 61.0018C68.7871 60.5483 68.0185 60.5527 67.5157 61.0119L58.897 68.8845L59.4542 69.4946ZM68.413 62.3593L76.4041 69.4946H60.6015L68.413 62.3593Z" stroke="white" stroke-width="1.6"/>
<rect x="3.40576" y="72.4978" width="16.0669" height="1.50221" rx="0.751106" fill="white"/>
<rect x="31.8569" y="72.4978" width="16.0669" height="1.50221" rx="0.751106" fill="white"/>
<rect x="60.3091" y="72.0974" width="16.7364" height="1.60236" rx="0.801179" fill="white"/>
<path d="M30.9235 40.2519H19.7223L28.513 23.7595L34.3543 34.637L30.9235 40.2519ZM35.5626 32.6596L29.8571 22.035C29.2799 20.9601 27.7375 20.9625 27.1637 22.0392L17.4559 40.2519H9.12554C8.3672 40.2519 7.75244 39.6371 7.75244 38.8788V8.37311C7.75244 7.61476 8.3672 7 9.12555 7H69.6513C70.4096 7 71.0244 7.61476 71.0244 8.3731V38.8788C71.0244 39.6371 70.4096 40.2519 69.6513 40.2519H61.6667L52.4543 30.3328C51.9789 29.821 51.1785 29.7919 50.6672 30.2679L46.8154 33.8547L41.8211 25.918C41.3217 25.1243 40.1622 25.132 39.6732 25.9321L35.5626 32.6596ZM40.7608 27.9882L45.754 35.9233L48.21 40.2519H33.2673L40.7608 27.9882ZM58.9372 40.2519H50.5095L47.8721 35.6035L51.4906 32.2341L58.9372 40.2519Z" stroke="white" stroke-width="2"/>
<circle cx="50.5933" cy="22.2209" r="2" fill="white"/>
<ellipse cx="30.6541" cy="46.5" rx="1.59597" ry="1.5" fill="white"/>
<ellipse cx="39.0579" cy="46.5" rx="1.59597" ry="1.5" fill="white"/>
<ellipse cx="47.4622" cy="46.5" rx="1.59597" ry="1.5" fill="white"/>
</g>
<defs>
<clipPath id="clip0_297_172">
<rect width="80" height="80" fill="white" transform="translate(0.0581055)"/>
</clipPath>
</defs>
</svg>
