<svg width="363" height="181" viewBox="0 0 363 181" fill="none" xmlns="http://www.w3.org/2000/svg">
<path d="M356.997 6.67218C343.997 21.6722 336.997 41.1722 293.497 57.1722M6.49707 174.672C28.4971 155.172 81.4971 139.672 81.4971 139.672" stroke="url(#paint0_linear_477_142)" stroke-width="12" stroke-linecap="round" stroke-dasharray="32 32"/>
<path d="M102.525 88.184L95.3936 90.6697L101.829 109.132L98.4144 110.322L91.9791 91.8598L84.8177 94.356L83.775 91.3645L101.482 85.1926L102.525 88.184ZM115.494 104.708C114.265 105.136 113.073 105.315 111.919 105.243C110.777 105.144 109.714 104.848 108.729 104.355C107.737 103.842 106.871 103.173 106.131 102.346C105.404 101.493 104.848 100.512 104.461 99.4038C103.942 97.9131 103.81 96.434 104.067 94.9664C104.316 93.4787 104.926 92.148 105.895 90.9744C106.857 89.7806 108.164 88.8958 109.816 88.32C111.467 87.7442 113.021 87.632 114.476 87.9832C115.945 88.3073 117.226 88.9678 118.319 89.965C119.412 90.9621 120.204 92.1657 120.696 93.5758C120.78 93.8176 120.851 94.0527 120.908 94.2814C120.958 94.4898 120.997 94.6681 121.026 94.8161L108.365 99.2291C108.749 100.135 109.285 100.863 109.974 101.413C110.676 101.937 111.45 102.277 112.295 102.434C113.134 102.571 113.956 102.499 114.762 102.218C115.648 101.91 116.407 101.397 117.038 100.68C117.689 99.9555 118.03 99.1817 118.059 98.3582L121.184 98.184C121.108 99.0689 120.826 99.9464 120.339 100.817C119.865 101.66 119.217 102.428 118.397 103.12C117.57 103.793 116.602 104.322 115.494 104.708ZM107.506 97.0549L117.054 93.7267C116.678 92.8412 116.139 92.1368 115.437 91.6134C114.748 91.0628 113.984 90.719 113.146 90.582C112.32 90.4178 111.485 90.4832 110.638 90.7781C109.813 91.066 109.117 91.5343 108.553 92.1829C108.001 92.8044 107.627 93.5449 107.429 94.4044C107.225 95.2438 107.25 96.1273 107.506 97.0549ZM122.563 84.1818L128.195 88.2847L128.646 88.7036L128.739 88.0951L130.571 81.3907L134.166 80.1374L131.245 90.0343L139.735 95.9199L136.139 97.1732L130.488 93.1111L130.047 92.7224L129.944 93.3007L128.041 99.9959L124.445 101.249L127.448 91.3916L118.997 85.4246L122.563 84.1818ZM141.985 95.1356L136.477 79.3321L139.801 78.1735L141.991 84.4587L149.334 81.8993L147.143 75.6142L150.467 74.4556L155.976 90.2592L152.652 91.4177L150.335 84.77L142.992 87.3293L145.309 93.9771L141.985 95.1356ZM159.986 88.8615L154.488 73.0882L157.812 71.9296L161.761 83.261L165.809 69.1084L168.83 68.0551L174.339 83.8587L171.015 85.0172L167.15 73.9275L163.098 87.7767L159.986 88.8615ZM187.194 79.3777L185.099 73.3645C184.592 73.8572 184.042 74.2864 183.446 74.6521C182.844 74.9977 182.14 75.3109 181.334 75.5917C179.642 76.1815 178.178 76.1948 176.942 75.6314C175.72 75.0408 174.799 73.8592 174.182 72.0865L172.349 66.8287L175.673 65.6701L177.358 70.5049C177.744 71.6128 178.26 72.3479 178.906 72.7102C179.545 73.0523 180.378 73.0443 181.405 72.6862C181.97 72.4896 182.513 72.2326 183.034 71.9151C183.556 71.5977 183.964 71.275 184.256 70.9472L181.686 63.5742L185.04 62.4051L190.549 78.2087L187.194 79.3777ZM201.837 74.613C200.608 75.0413 199.416 75.2195 198.261 75.1475C197.12 75.0484 196.057 74.7525 195.072 74.2599C194.08 73.7472 193.214 73.0776 192.474 72.2511C191.747 71.3974 191.19 70.4166 190.804 69.3086C190.285 67.8179 190.153 66.3388 190.41 64.8712C190.659 63.3835 191.269 62.0528 192.238 60.8792C193.2 59.6853 194.507 58.8006 196.158 58.2248C197.81 57.649 199.364 57.5368 200.819 57.888C202.288 58.212 203.569 58.8726 204.662 59.8698C205.755 60.8669 206.547 62.0705 207.039 63.4806C207.123 63.7224 207.193 63.9575 207.251 64.1861C207.301 64.3946 207.34 64.5729 207.369 64.7209L194.708 69.1339C195.092 70.0395 195.628 70.7676 196.317 71.3182C197.019 71.8416 197.793 72.1819 198.638 72.3391C199.477 72.4761 200.299 72.4041 201.105 72.1233C201.991 71.8143 202.75 71.3013 203.381 70.5843C204.032 69.8603 204.372 69.0865 204.402 68.263L207.526 68.0888C207.451 68.9737 207.169 69.8512 206.682 70.7214C206.208 71.5645 205.56 72.3324 204.74 73.025C203.912 73.6975 202.945 74.2268 201.837 74.613ZM193.849 66.9597L203.397 63.6315C203.021 62.746 202.482 62.0416 201.78 61.5182C201.091 60.9676 200.327 60.6238 199.489 60.4868C198.663 60.3226 197.827 60.388 196.981 60.6829C196.155 60.9708 195.46 61.4391 194.896 62.0877C194.344 62.7092 193.97 63.4497 193.772 64.3092C193.568 65.1486 193.593 66.0321 193.849 66.9597ZM219.808 68.3491C218.579 68.7774 217.387 68.9556 216.232 68.8837C215.091 68.7845 214.024 68.4786 213.032 67.9659C212.04 67.4532 211.17 66.7735 210.424 65.9268C209.697 65.0731 209.14 64.0923 208.754 62.9843C208.234 61.4936 208.093 60.018 208.329 58.5575C208.586 57.0899 209.189 55.7728 210.138 54.6062C211.107 53.4325 212.427 52.5543 214.099 51.9715C215.711 51.4098 217.237 51.2844 218.678 51.5953C220.133 51.8791 221.349 52.5169 222.328 53.5089L219.452 55.6632C218.858 55.1248 218.165 54.7902 217.374 54.6593C216.596 54.5012 215.814 54.5591 215.029 54.833C214.142 55.1419 213.417 55.6544 212.854 56.3705C212.303 57.0595 211.957 57.8806 211.814 58.8338C211.685 59.7599 211.803 60.7467 212.169 61.7942C212.52 62.8014 213.051 63.6443 213.762 64.3228C214.465 64.9811 215.254 65.4291 216.128 65.6669C217.014 65.8774 217.901 65.8282 218.787 65.5193C219.331 65.3297 219.823 65.0565 220.264 64.6996C220.717 64.3156 221.079 63.8958 221.35 63.44C221.613 62.9642 221.755 62.4967 221.776 62.0376L225.376 61.8671C225.308 62.7721 225.036 63.6461 224.562 64.4892C224.108 65.3253 223.481 66.0861 222.681 66.7717C221.893 67.4301 220.936 67.9559 219.808 68.3491ZM229.42 64.6598L223.912 48.8563L227.205 47.7083L229.385 53.9632L230.957 53.4156L233.43 45.5386L237.116 44.2537L234.01 53.9103L243.29 59.8255L239.452 61.1631L231.969 56.4176L230.428 56.9547L232.714 63.5118L229.42 64.6598ZM252.207 57.0562C250.958 57.4915 249.766 57.6697 248.632 57.5907C247.49 57.4916 246.423 57.1857 245.431 56.673C244.459 56.1532 243.614 55.4766 242.894 54.643C242.167 53.7894 241.61 52.8085 241.224 51.7006C240.838 50.5926 240.664 49.4784 240.703 48.3579C240.742 47.2374 240.984 46.1816 241.429 45.1905C241.887 44.1722 242.536 43.2795 243.376 42.5124C244.229 41.7182 245.27 41.1069 246.498 40.6786C247.727 40.2503 248.912 40.0857 250.054 40.1848C251.209 40.2567 252.272 40.5526 253.244 41.0723C254.229 41.5649 255.085 42.2381 255.812 43.0917C256.538 43.9454 257.095 44.9262 257.481 46.0342C257.867 47.1422 258.041 48.2564 258.002 49.3769C257.957 50.4772 257.705 51.5366 257.246 52.5548C256.808 53.5661 256.162 54.4688 255.31 55.2631C254.47 56.0302 253.436 56.6279 252.207 57.0562ZM244.649 50.5406C245 51.5479 245.528 52.3807 246.232 53.039C246.936 53.6973 247.721 54.1353 248.588 54.3529C249.454 54.5704 250.331 54.5248 251.217 54.2158C252.083 53.9139 252.788 53.4084 253.332 52.6993C253.888 51.963 254.238 51.1183 254.38 50.1651C254.515 49.1917 254.411 48.2114 254.067 47.2243C253.715 46.2171 253.188 45.3843 252.484 44.726C251.78 44.0677 250.985 43.6332 250.098 43.4227C249.225 43.1849 248.355 43.217 247.488 43.519C246.602 43.8279 245.891 44.347 245.354 45.0762C244.818 45.8055 244.478 46.6467 244.336 47.5999C244.187 48.533 244.291 49.5133 244.649 50.5406ZM270.445 50.6993C269.216 51.1276 268.024 51.3058 266.87 51.2338C265.728 51.1347 264.665 50.8389 263.68 50.3463C262.688 49.8336 261.822 49.1639 261.082 48.3374C260.355 47.4837 259.798 46.5029 259.412 45.395C258.893 43.9042 258.761 42.4251 259.018 40.9576C259.267 39.4699 259.877 38.1392 260.846 36.9655C261.808 35.7717 263.115 34.8869 264.767 34.3111C266.418 33.7354 267.972 33.6231 269.427 33.9743C270.896 34.2984 272.177 34.959 273.27 35.9561C274.363 36.9532 275.155 38.1568 275.647 39.567C275.731 39.8087 275.802 40.0439 275.859 40.2725C275.909 40.481 275.948 40.6592 275.977 40.8072L263.316 45.2203C263.7 46.1259 264.236 46.854 264.925 47.4046C265.627 47.928 266.401 48.2683 267.246 48.4254C268.085 48.5624 268.907 48.4905 269.713 48.2096C270.599 47.9007 271.358 47.3877 271.989 46.6706C272.64 45.9466 272.98 45.1728 273.01 44.3493L276.135 44.1751C276.059 45.06 275.777 45.9376 275.29 46.8078C274.816 47.6509 274.168 48.4187 273.348 49.1113C272.52 49.7838 271.553 50.3131 270.445 50.6993ZM262.457 43.046L272.005 39.7178C271.629 38.8324 271.09 38.1279 270.388 37.6045C269.699 37.0539 268.935 36.7101 268.097 36.5731C267.271 36.409 266.436 36.4743 265.589 36.7692C264.764 37.0571 264.068 37.5254 263.504 38.174C262.952 38.7955 262.578 39.536 262.38 40.3956C262.176 41.235 262.201 42.1185 262.457 43.046ZM144.107 134.909C142.495 135.471 141.034 135.653 139.722 135.455C138.424 135.23 137.3 134.695 136.35 133.851L138.618 131.705C139.165 132.17 139.81 132.465 140.553 132.59C141.29 132.694 142.102 132.592 142.988 132.283C144.056 131.911 144.805 131.402 145.234 130.755C145.664 130.108 145.752 129.422 145.5 128.697C145.268 128.032 144.84 127.582 144.216 127.348C143.585 127.094 142.823 127.111 141.93 127.4L140.298 127.968L139.561 125.853L141.253 125.263C141.656 125.123 141.977 124.909 142.216 124.623C142.455 124.336 142.602 124.014 142.658 123.655C142.727 123.27 142.691 122.875 142.551 122.473C142.34 121.868 141.94 121.466 141.35 121.264C140.774 121.036 140.032 121.08 139.126 121.396C138.34 121.67 137.748 122.046 137.35 122.523C136.944 122.981 136.679 123.548 136.553 124.224L133.582 123.769C133.768 122.619 134.271 121.597 135.088 120.702C135.906 119.807 136.99 119.124 138.339 118.654C139.407 118.282 140.413 118.123 141.359 118.178C142.317 118.205 143.14 118.46 143.828 118.943C144.53 119.399 145.042 120.091 145.365 121.017C145.617 121.743 145.685 122.487 145.567 123.251C145.442 123.995 145.07 124.644 144.45 125.199C145.515 125.144 146.413 125.385 147.142 125.922C147.884 126.431 148.42 127.159 148.75 128.106C149.087 129.073 149.107 130.004 148.809 130.898C148.524 131.766 147.971 132.546 147.15 133.239C146.33 133.931 145.316 134.488 144.107 134.909ZM150.582 127.197C150.231 126.189 150.207 125.215 150.512 124.273C150.829 123.304 151.421 122.442 152.288 121.688C153.148 120.914 154.242 120.295 155.572 119.832C156.277 119.586 157.01 119.387 157.77 119.235C158.55 119.076 159.261 119.009 159.903 119.034L159.555 118.037C159.169 116.929 158.534 116.178 157.652 115.786C156.77 115.393 155.704 115.414 154.455 115.85C153.569 116.158 152.789 116.611 152.115 117.207C151.435 117.783 150.75 118.508 150.06 119.381L148.163 117.534C148.965 116.464 149.83 115.575 150.758 114.868C151.706 114.153 152.764 113.592 153.933 113.185C156.048 112.448 157.907 112.432 159.508 113.139C161.123 113.819 162.289 115.186 163.005 117.241L165.059 123.133C165.192 123.516 165.348 123.767 165.525 123.886C165.722 123.998 165.985 124.008 166.314 123.916L167.241 126.575C166.96 126.74 166.702 126.875 166.468 126.98C166.233 127.084 166.035 127.165 165.874 127.221C165.169 127.467 164.575 127.481 164.093 127.265C163.611 127.049 163.259 126.72 163.037 126.278L162.631 125.403C162.255 126.528 161.617 127.518 160.718 128.374C159.819 129.23 158.825 129.847 157.738 130.226C156.69 130.591 155.68 130.706 154.706 130.571C153.726 130.416 152.874 130.046 152.151 129.462C151.428 128.878 150.905 128.123 150.582 127.197ZM160.981 124.656C161.132 124.31 161.232 123.981 161.281 123.67C161.331 123.359 161.321 123.103 161.251 122.902L160.619 121.089C159.977 121.064 159.327 121.11 158.667 121.227C158.001 121.323 157.365 121.477 156.761 121.688C155.552 122.109 154.649 122.695 154.052 123.445C153.476 124.188 153.335 124.983 153.63 125.829C153.791 126.293 154.066 126.694 154.456 127.032C154.865 127.364 155.347 127.58 155.902 127.681C156.476 127.774 157.116 127.698 157.821 127.452C158.546 127.199 159.192 126.816 159.759 126.302C160.325 125.789 160.733 125.24 160.981 124.656ZM170.203 129.778L167.865 123.07L168.228 122.944C168.651 122.796 169.001 122.538 169.28 122.17C169.558 121.802 169.737 121.277 169.815 120.594C169.886 119.892 169.83 118.985 169.646 117.874C169.455 116.743 169.099 115.365 168.578 113.74L167.095 108.902L178.366 104.974L182.853 117.846L185.028 117.088L187.367 123.796L184.436 124.818L183.119 121.04L171.788 124.99L173.104 128.767L170.203 129.778ZM172.609 121.417L179.529 119.005L176.043 109.003L171.027 110.751L171.705 112.989C172.178 114.541 172.517 115.869 172.721 116.972C172.945 118.069 173.035 118.975 172.99 119.691C172.966 120.4 172.839 120.975 172.609 121.417ZM186.11 114.813C185.759 113.806 185.736 112.831 186.04 111.889C186.358 110.92 186.95 110.058 187.816 109.304C188.676 108.53 189.771 107.912 191.1 107.448C191.806 107.202 192.538 107.003 193.299 106.851C194.079 106.692 194.79 106.625 195.431 106.65L195.084 105.653C194.697 104.545 194.063 103.795 193.181 103.402C192.298 103.009 191.233 103.031 189.984 103.466C189.097 103.775 188.317 104.227 187.644 104.824C186.964 105.4 186.279 106.124 185.589 106.997L183.692 105.151C184.493 104.08 185.358 103.192 186.286 102.484C187.235 101.769 188.293 101.208 189.461 100.801C191.577 100.064 193.435 100.049 195.037 100.756C196.652 101.435 197.818 102.802 198.534 104.857L200.588 110.749C200.721 111.132 200.876 111.383 201.053 111.502C201.251 111.614 201.514 111.624 201.843 111.532L202.77 114.191C202.489 114.357 202.231 114.492 201.996 114.596C201.762 114.701 201.564 114.781 201.402 114.837C200.697 115.083 200.104 115.098 199.622 114.882C199.14 114.666 198.788 114.336 198.566 113.894L198.159 113.019C197.783 114.144 197.146 115.135 196.247 115.99C195.348 116.846 194.354 117.463 193.266 117.842C192.219 118.208 191.208 118.323 190.235 118.187C189.255 118.032 188.403 117.662 187.68 117.079C186.956 116.495 186.433 115.74 186.11 114.813ZM196.51 112.273C196.66 111.926 196.76 111.598 196.81 111.287C196.86 110.976 196.85 110.72 196.779 110.518L196.147 108.705C195.506 108.68 194.856 108.726 194.196 108.843C193.529 108.94 192.894 109.093 192.29 109.304C191.081 109.725 190.178 110.311 189.581 111.062C189.004 111.805 188.863 112.599 189.158 113.446C189.32 113.909 189.595 114.31 189.984 114.649C190.394 114.98 190.876 115.197 191.43 115.297C192.005 115.39 192.645 115.314 193.35 115.068C194.075 114.816 194.721 114.432 195.287 113.919C195.854 113.405 196.261 112.856 196.51 112.273ZM205.926 113.091L200.418 97.2873L203.742 96.1288L205.932 102.414L213.275 99.8546L211.084 93.5694L214.408 92.4109L219.917 108.214L216.593 109.373L214.276 102.725L206.933 105.285L209.25 111.932L205.926 113.091ZM223.927 106.817L218.429 91.0434L221.753 89.8849L225.702 101.216L229.75 87.0636L232.771 86.0104L238.28 101.814L234.956 102.972L231.091 91.8828L227.039 105.732L223.927 106.817ZM249.518 98.2355C248.29 98.6638 247.098 98.842 245.943 98.77C244.802 98.6709 243.738 98.375 242.753 97.8824C241.761 97.3697 240.895 96.7001 240.155 95.8736C239.429 95.0199 238.872 94.0391 238.486 92.9311C237.966 91.4404 237.835 89.9613 238.091 88.4937C238.341 87.006 238.95 85.6753 239.919 84.5017C240.881 83.3079 242.188 82.4231 243.84 81.8473C245.492 81.2715 247.046 81.1593 248.501 81.5105C249.969 81.8346 251.25 82.4951 252.343 83.4923C253.436 84.4894 254.229 85.693 254.72 87.1031C254.804 87.3449 254.875 87.58 254.932 87.8087C254.982 88.0171 255.022 88.1954 255.051 88.3434L242.39 92.7564C242.773 93.662 243.309 94.3901 243.998 94.9407C244.7 95.4641 245.474 95.8044 246.32 95.9616C247.158 96.0986 247.98 96.0266 248.786 95.7458C249.673 95.4368 250.431 94.9238 251.062 94.2068C251.714 93.4828 252.054 92.709 252.083 91.8855L255.208 91.7113C255.132 92.5962 254.851 93.4737 254.364 94.344C253.889 95.187 253.242 95.9549 252.421 96.6475C251.594 97.32 250.626 97.8493 249.518 98.2355ZM241.53 90.5822L251.079 87.254C250.703 86.3685 250.163 85.6641 249.461 85.1407C248.772 84.5901 248.009 84.2463 247.17 84.1093C246.345 83.9451 245.509 84.0105 244.663 84.3054C243.837 84.5933 243.142 85.0616 242.577 85.7102C242.026 86.3317 241.651 87.0722 241.454 87.9317C241.249 88.7711 241.275 89.6546 241.53 90.5822Z" fill="url(#paint1_linear_477_142)"/>
<defs>
<linearGradient id="paint0_linear_477_142" x1="300.997" y1="55.6725" x2="-140.504" y2="234.173" gradientUnits="userSpaceOnUse">
<stop stop-color="#F27015"/>
<stop offset="0.989197" stop-color="#FF0068"/>
</linearGradient>
<linearGradient id="paint1_linear_477_142" x1="283.818" y1="51.7608" x2="99.6917" y2="116.449" gradientUnits="userSpaceOnUse">
<stop stop-color="#F6502E"/>
<stop offset="1" stop-color="#FF2854"/>
</linearGradient>
</defs>
</svg>
