<svg width="408" height="102" viewBox="0 0 408 102" fill="none" xmlns="http://www.w3.org/2000/svg">
<path d="M401.499 8.67249C377.999 31.1725 290.999 44.1725 277.499 44.1725M6.49902 95.6726C20.999 82.6726 73.499 75.6726 107.499 66.6726" stroke="url(#paint0_linear_477_147)" stroke-width="12" stroke-linecap="round" stroke-dasharray="32 32"/>
<path d="M127.223 48.6025L124.814 26.0106L138.274 24.5754L138.61 27.7256L128.714 28.7807L130.787 48.2225L127.223 48.6025ZM151.1 46.3785C149.784 46.5187 148.583 46.4215 147.496 46.0869C146.407 45.731 145.438 45.1908 144.588 44.4661C143.76 43.7391 143.09 42.8881 142.578 41.9128C142.064 40.9163 141.745 39.8347 141.621 38.668C141.496 37.5013 141.58 36.3767 141.872 35.2943C142.165 34.2119 142.64 33.2387 143.299 32.3746C143.977 31.4871 144.811 30.7652 145.803 30.2089C146.814 29.6291 147.967 29.2702 149.261 29.1322C150.555 28.9943 151.746 29.1032 152.835 29.4591C153.944 29.7914 154.912 30.3211 155.74 31.048C156.588 31.7515 157.268 32.6014 157.782 33.5979C158.296 34.5944 158.615 35.676 158.74 36.8427C158.864 38.0094 158.78 39.134 158.488 40.2164C158.193 41.2776 157.707 42.252 157.03 43.1395C156.373 44.0248 155.539 44.7573 154.528 45.3371C153.537 45.8934 152.394 46.2405 151.1 46.3785ZM145.22 38.3165C145.333 39.3771 145.657 40.308 146.193 41.109C146.729 41.91 147.394 42.5149 148.189 42.9236C148.983 43.3323 149.847 43.487 150.781 43.3874C151.693 43.2902 152.494 42.958 153.185 42.3909C153.894 41.8004 154.426 41.0571 154.781 40.1611C155.134 39.2439 155.255 38.2655 155.144 37.2261C155.031 36.1654 154.706 35.2346 154.17 34.4336C153.634 33.6325 152.959 33.0288 152.143 32.6223C151.346 32.1924 150.492 32.026 149.58 32.1233C148.646 32.2228 147.835 32.5667 147.147 33.155C146.459 33.7433 145.938 34.4854 145.583 35.3814C145.225 36.2563 145.104 37.2346 145.22 38.3165ZM166.675 44.3959L165.23 30.8407L159.725 31.4277L159.396 28.3412L173.937 26.7907L174.267 29.8772L168.73 30.4675L170.175 44.0227L166.675 44.3959ZM185.84 42.6742C184.525 42.8145 183.324 42.7172 182.237 42.3826C181.148 42.0267 180.178 41.4865 179.329 40.7618C178.5 40.0349 177.83 39.1838 177.319 38.2085C176.805 37.2121 176.486 36.1305 176.361 34.9638C176.237 33.797 176.321 32.6725 176.613 31.5901C176.905 30.5076 177.381 29.5344 178.039 28.6704C178.717 27.7828 179.552 27.0609 180.544 26.5046C181.555 25.9248 182.707 25.5659 184.001 25.428C185.295 25.29 186.487 25.3989 187.576 25.7548C188.684 26.0872 189.652 26.6168 190.481 27.3438C191.328 28.0472 192.009 28.8972 192.523 29.8936C193.037 30.8901 193.356 31.9717 193.48 33.1384C193.605 34.3051 193.521 35.4297 193.228 36.5121C192.934 37.5733 192.448 38.5477 191.77 39.4352C191.114 40.3205 190.28 41.053 189.269 41.6328C188.277 42.1891 187.134 42.5362 185.84 42.6742ZM179.96 34.6122C180.073 35.6728 180.398 36.6037 180.934 37.4047C181.47 38.2057 182.135 38.8106 182.929 39.2193C183.724 39.6281 184.588 39.7827 185.521 39.6832C186.433 39.5859 187.235 39.2537 187.925 38.6867C188.634 38.0961 189.167 37.3529 189.522 36.4568C189.874 35.5396 189.995 34.5613 189.885 33.5218C189.771 32.4612 189.447 31.5303 188.911 30.7293C188.375 29.9283 187.699 29.3245 186.884 28.918C186.087 28.4881 185.232 28.3218 184.32 28.419C183.387 28.5185 182.576 28.8624 181.888 29.4507C181.2 30.039 180.678 30.7812 180.323 31.6772C179.966 32.552 179.845 33.5303 179.96 34.6122ZM197.47 41.1123L195.696 24.4707L204.605 23.5207C205.666 23.4076 206.557 23.5164 207.279 23.847C208.02 24.1542 208.592 24.5973 208.997 25.1763C209.4 25.7341 209.64 26.3736 209.717 27.0949C209.814 28.007 209.688 28.8357 209.338 29.581C208.989 30.3263 208.42 30.9233 207.631 31.3722C208.615 31.5461 209.441 31.9515 210.11 32.5882C210.797 33.2014 211.199 34.049 211.314 35.1308C211.418 36.1066 211.273 36.9588 210.879 37.6874C210.482 38.3948 209.867 38.9645 209.033 39.3967C208.219 39.8053 207.239 40.0707 206.093 40.1929L197.47 41.1123ZM200.521 38.3412L205.74 37.7848C206.185 37.7373 206.577 37.5882 206.915 37.3376C207.272 37.0636 207.537 36.7349 207.711 36.3517C207.882 35.9472 207.946 35.5329 207.9 35.1086C207.851 34.6419 207.7 34.2396 207.45 33.9016C207.22 33.5613 206.914 33.3044 206.531 33.1307C206.169 32.9547 205.755 32.8916 205.288 32.9414L200.006 33.5046L200.521 38.3412ZM199.765 31.2454L204.474 30.7433C204.92 30.6958 205.301 30.5479 205.618 30.2995C205.932 30.03 206.164 29.6942 206.315 29.292C206.465 28.8898 206.517 28.4765 206.472 28.0523C206.407 27.4371 206.148 26.9283 205.698 26.5258C205.247 26.1233 204.693 25.9571 204.036 26.0272L199.263 26.5361L199.765 31.2454ZM215.12 39.2304L213.346 22.5887L216.846 22.2155L217.429 27.6885L220.579 27.3526C222.552 27.1422 224.112 27.4802 225.257 28.3663C226.403 29.2525 227.063 30.5123 227.237 32.1457C227.355 33.2488 227.237 34.259 226.885 35.1762C226.532 36.0934 225.947 36.8424 225.129 37.423C224.332 38.0014 223.298 38.3584 222.025 38.4941L215.12 39.2304ZM218.332 36.1525L221.196 35.8472C221.896 35.7725 222.444 35.5853 222.841 35.2855C223.236 34.9645 223.505 34.5711 223.649 34.1052C223.811 33.6159 223.864 33.1061 223.807 32.5758C223.751 32.0455 223.605 31.5783 223.368 31.1744C223.13 30.7493 222.774 30.4332 222.302 30.2262C221.848 29.9956 221.261 29.9188 220.539 29.9957L217.708 30.2977L218.332 36.1525ZM230.584 37.5815L228.813 20.9716L232.313 20.5984L234.085 37.2083L230.584 37.5815ZM238.301 36.7587L236.53 20.1488L240.03 19.7756L241.303 31.708L248.459 18.8447L251.641 18.5054L253.415 35.1471L249.915 35.5203L248.67 23.8425L241.579 36.4092L238.301 36.7587ZM243.917 17.5913C242.347 17.7586 241.085 17.4962 240.132 16.8041C239.2 16.1097 238.67 15.1685 238.543 13.9806L240.834 13.7363C240.9 14.3515 241.156 14.8391 241.602 15.1992C242.069 15.557 242.769 15.6861 243.703 15.5866C244.615 15.4894 245.242 15.2294 245.583 14.8069C245.945 14.3821 246.134 13.8364 246.148 13.1697L248.439 12.9254C248.566 14.1134 248.236 15.1461 247.45 16.0237C246.685 16.8991 245.508 17.4216 243.917 17.5913ZM148.154 84.908C146.86 85.0459 145.659 84.9487 144.551 84.6164C143.462 84.2605 142.492 83.7202 141.642 82.9956C140.793 82.2709 140.1 81.4115 139.565 80.4173C139.052 79.4208 138.732 78.3392 138.608 77.1725C138.441 75.6027 138.638 74.1335 139.2 72.7649C139.783 71.394 140.669 70.2482 141.859 69.3276C143.069 68.4048 144.554 67.8495 146.315 67.6617C148.012 67.4808 149.527 67.7054 150.86 68.3356C152.212 68.9424 153.252 69.8399 153.979 71.0281L150.69 72.473C150.233 71.8137 149.635 71.3304 148.894 71.0232C148.172 70.6926 147.398 70.5713 146.57 70.6596C145.637 70.7591 144.814 71.0935 144.103 71.6628C143.41 72.2087 142.886 72.9296 142.531 73.8256C142.195 74.6982 142.086 75.686 142.204 76.7891C142.317 77.8497 142.642 78.7912 143.181 79.6134C143.717 80.4145 144.383 81.0299 145.18 81.4599C145.995 81.8664 146.87 82.0198 147.803 81.9203C148.376 81.8592 148.917 81.705 149.427 81.4575C149.956 81.1866 150.404 80.8599 150.771 80.4775C151.136 80.0739 151.38 79.6509 151.505 79.2086L155.05 79.8604C154.777 80.7262 154.314 81.5157 153.661 82.229C153.029 82.94 152.245 83.5385 151.31 84.0244C150.394 84.4868 149.342 84.7813 148.154 84.908ZM165.773 83.0293C164.479 83.1673 163.278 83.0701 162.17 82.7377C161.08 82.3819 160.112 81.8522 159.265 81.1487C158.415 80.4241 157.724 79.5752 157.191 78.6023C156.677 77.6058 156.358 76.5242 156.234 75.3575C156.066 73.7877 156.274 72.3174 156.857 70.9465C157.438 69.5544 158.334 68.3969 159.544 67.474C160.753 66.5299 162.226 65.9652 163.966 65.7797C165.705 65.5942 167.244 65.8378 168.581 66.5105C169.938 67.1596 171.035 68.0939 171.873 69.3132C172.711 70.5326 173.209 71.8847 173.367 73.3697C173.395 73.6242 173.41 73.8693 173.414 74.1049C173.415 74.3193 173.413 74.5019 173.408 74.6526L160.075 76.0742C160.243 77.0432 160.6 77.8741 161.146 78.5668C161.71 79.236 162.387 79.7432 163.174 80.0883C163.96 80.4121 164.777 80.5288 165.625 80.4384C166.559 80.3388 167.414 80.0116 168.192 79.4567C168.99 78.8996 169.498 78.2233 169.713 77.428L172.796 77.9682C172.521 78.8127 172.048 79.6034 171.375 80.3402C170.722 81.0535 169.917 81.6542 168.961 82.1423C168.002 82.6093 166.94 82.9049 165.773 83.0293ZM159.732 73.7616L169.787 72.6894C169.622 71.7416 169.257 70.9331 168.692 70.2639C168.146 69.5712 167.48 69.0629 166.695 68.739C165.928 68.3917 165.1 68.2655 164.209 68.3605C163.339 68.4532 162.556 68.7513 161.858 69.2547C161.18 69.7347 160.647 70.3708 160.26 71.163C159.87 71.934 159.694 72.8002 159.732 73.7616ZM186.606 80.808C185.27 80.9505 184.058 80.7578 182.972 80.23C181.886 79.7022 180.992 78.9608 180.289 78.0059L181.344 87.9018L177.844 88.275L175.347 64.8558L178.434 64.5267L178.753 67.5177C179.283 66.4528 180.025 65.5691 180.98 64.8666C181.935 64.1641 183.038 63.7461 184.29 63.6126C185.435 63.4905 186.51 63.6119 187.515 63.9768C188.517 64.3204 189.411 64.858 190.197 65.5895C190.983 66.3209 191.622 67.186 192.115 68.1847C192.626 69.16 192.943 70.2204 193.065 71.3659C193.235 72.9569 193.072 74.4439 192.576 75.827C192.101 77.2078 191.343 78.3506 190.302 79.2553C189.281 80.1366 188.048 80.6542 186.606 80.808ZM185.142 77.9391C185.884 77.8599 186.535 77.6295 187.095 77.248C187.677 76.8642 188.151 76.3845 188.519 75.809C188.908 75.2312 189.183 74.5904 189.344 73.8867C189.505 73.183 189.547 72.4705 189.47 71.7493C189.388 70.9856 189.184 70.2779 188.857 69.6263C188.53 68.9746 188.096 68.4202 187.553 67.9631C187.032 67.5038 186.438 67.1595 185.77 66.9304C185.123 66.699 184.428 66.6229 183.686 66.702C183.24 66.7495 182.783 66.8842 182.313 67.1059C181.843 67.3276 181.412 67.6096 181.019 67.9518C180.627 68.294 180.293 68.6836 180.018 69.1206C179.742 69.5576 179.565 70.0056 179.485 70.4646L179.95 74.8239C180.319 75.4711 180.777 76.0444 181.324 76.5439C181.869 77.0222 182.477 77.3972 183.15 77.6687C183.82 77.9191 184.484 78.0092 185.142 77.9391ZM197.102 79.367L195.328 62.7253L204.237 61.7753C205.298 61.6622 206.189 61.771 206.911 62.1017C207.652 62.4089 208.224 62.852 208.629 63.431C209.032 63.9887 209.272 64.6282 209.349 65.3495C209.446 66.2617 209.32 67.0904 208.97 67.8356C208.621 68.5809 208.052 69.178 207.263 69.6268C208.247 69.8008 209.073 70.2061 209.742 70.8428C210.429 71.4561 210.831 72.3036 210.946 73.3855C211.05 74.3613 210.905 75.2135 210.511 75.942C210.114 76.6494 209.499 77.2192 208.665 77.6513C207.851 78.06 206.871 78.3254 205.725 78.4475L197.102 79.367ZM200.153 76.5958L205.372 76.0394C205.817 75.9919 206.209 75.8429 206.547 75.5923C206.904 75.3182 207.169 74.9896 207.343 74.6063C207.515 74.2019 207.578 73.7875 207.532 73.3633C207.483 72.8966 207.332 72.4942 207.082 72.1562C206.852 71.816 206.546 71.559 206.163 71.3853C205.801 71.2094 205.387 71.1463 204.92 71.196L199.638 71.7593L200.153 76.5958ZM199.397 69.5001L204.106 68.9979C204.552 68.9504 204.933 68.8025 205.25 68.5542C205.564 68.2847 205.796 67.9488 205.947 67.5466C206.097 67.1444 206.149 66.7312 206.104 66.3069C206.039 65.6917 205.78 65.1829 205.33 64.7804C204.879 64.3779 204.325 64.2117 203.668 64.2818L198.895 64.7908L199.397 69.5001ZM214.752 77.485L212.981 60.8752L216.481 60.502L217.753 72.4343L224.91 59.5711L228.092 59.2318L229.866 75.8734L226.366 76.2467L225.121 64.5688L218.029 77.1356L214.752 77.485ZM241.624 74.9416C240.33 75.0795 239.129 74.9823 238.021 74.65C236.932 74.2941 235.962 73.7538 235.113 73.0292C234.263 72.3045 233.571 71.4451 233.036 70.4509C232.522 69.4544 232.203 68.3728 232.078 67.2061C231.911 65.6363 232.108 64.1671 232.67 62.7985C233.253 61.4276 234.14 60.2818 235.329 59.3612C236.539 58.4384 238.025 57.8831 239.785 57.6953C241.482 57.5144 242.997 57.739 244.33 58.3692C245.682 58.976 246.722 59.8735 247.449 61.0617L244.16 62.5066C243.703 61.8473 243.105 61.364 242.364 61.0568C241.642 60.7262 240.868 60.6049 240.04 60.6932C239.107 60.7927 238.285 61.1271 237.573 61.6964C236.88 62.2423 236.356 62.9632 236.001 63.8593C235.665 64.7318 235.556 65.7196 235.674 66.8227C235.787 67.8833 236.113 68.8248 236.651 69.647C237.187 70.4481 237.853 71.0635 238.65 71.4935C239.465 71.9 240.34 72.0534 241.273 71.9539C241.846 71.8928 242.387 71.7386 242.897 71.4911C243.426 71.2202 243.874 70.8935 244.241 70.5111C244.606 70.1075 244.85 69.6846 244.975 69.2422L248.52 69.894C248.247 70.7598 247.784 71.5493 247.131 72.2626C246.499 72.9736 245.715 73.5721 244.78 74.058C243.864 74.5204 242.812 74.8149 241.624 74.9416Z" fill="url(#paint1_linear_477_147)"/>
<defs>
<linearGradient id="paint0_linear_477_147" x1="358.999" y1="-1.32702" x2="305.307" y2="-81.7262" gradientUnits="userSpaceOnUse">
<stop offset="0.00595952" stop-color="#0074F5"/>
<stop offset="0.99601" stop-color="#2CD2FF"/>
</linearGradient>
<linearGradient id="paint1_linear_477_147" x1="69.4971" y1="67.1726" x2="314.997" y2="36.6726" gradientUnits="userSpaceOnUse">
<stop stop-color="#2CD2FF"/>
<stop offset="1" stop-color="#0174F5"/>
</linearGradient>
</defs>
</svg>
