<svg width="367" height="121" viewBox="0 0 367 121" fill="none" xmlns="http://www.w3.org/2000/svg">
<path d="M6.99902 23.6725C22.499 34.1725 45.999 42.1725 57.998 45.6725M360.499 106.172C338.499 92.6725 327.008 89.9501 283.498 79.6725" stroke="url(#paint0_linear_477_145)" stroke-width="12" stroke-linecap="round" stroke-dasharray="32 32"/>
<path d="M87.3239 28.8277C87.5219 27.4552 87.9581 26.1495 88.6326 24.9104C89.3102 23.6503 90.1912 22.5488 91.2756 21.606C92.3841 20.6451 93.6598 19.9454 95.1025 19.5069C96.5483 19.0473 98.1263 18.9409 99.8366 19.1877C101.864 19.4801 103.549 20.1975 104.893 21.3398C106.24 22.4609 107.169 23.7912 107.68 25.3306L104.623 26.7971C104.332 25.8283 103.897 25.0327 103.319 24.4104C102.761 23.7911 102.118 23.3211 101.388 23.0003C100.68 22.6825 99.9663 22.4718 99.2484 22.3683C98.066 22.1977 96.9964 22.2912 96.0395 22.6489C95.0856 22.9855 94.2462 23.5002 93.5212 24.1931C92.8172 24.8891 92.2368 25.6999 91.78 26.6254C91.3443 27.5541 91.0563 28.504 90.9162 29.4753C90.7608 30.5522 90.7895 31.6232 91.0023 32.6885C91.218 33.7327 91.5863 34.6911 92.107 35.5637C92.6519 36.4183 93.3358 37.1313 94.1586 37.7026C94.9815 38.274 95.9208 38.6358 96.9765 38.7881C97.6944 38.8917 98.4623 38.8731 99.28 38.7325C100.098 38.5918 100.872 38.3048 101.603 37.8713C102.358 37.4198 102.989 36.7781 103.497 35.9461L106.2 38.0497C105.574 39.1017 104.709 39.9468 103.604 40.5849C102.52 41.226 101.337 41.6588 100.054 41.8833C98.7926 42.1108 97.5707 42.1393 96.3883 41.9687C94.8047 41.7402 93.4056 41.2043 92.1909 40.3609C90.9792 39.4963 89.9776 38.4465 89.1858 37.2115C88.3971 35.9553 87.8378 34.6029 87.5079 33.1543C87.1811 31.6846 87.1198 30.2424 87.3239 28.8277ZM115.741 44.8901C114.453 44.7043 113.313 44.3135 112.322 43.7178C111.354 43.104 110.546 42.3517 109.899 41.4608C109.255 40.5487 108.794 39.5555 108.518 38.4811C108.266 37.3886 108.224 36.2617 108.392 35.1004C108.617 33.5379 109.182 32.1644 110.086 30.98C110.992 29.7744 112.146 28.874 113.547 28.2785C114.951 27.662 116.518 27.4786 118.249 27.7284C119.981 27.9782 121.412 28.5942 122.542 29.5763C123.696 30.5403 124.528 31.7165 125.039 33.1051C125.55 34.4936 125.699 35.9269 125.486 37.4049C125.449 37.6583 125.404 37.8996 125.349 38.1288C125.298 38.3369 125.251 38.5133 125.208 38.6581L111.938 36.7435C111.861 37.7239 112.001 38.6171 112.359 39.4232C112.741 40.2111 113.271 40.8696 113.949 41.3985C114.631 41.9063 115.393 42.2211 116.238 42.343C117.167 42.477 118.077 42.3712 118.967 42.0254C119.879 41.6828 120.537 41.1527 120.943 40.4352L123.796 41.7199C123.322 42.4705 122.668 43.1197 121.834 43.6676C121.025 44.1975 120.097 44.5809 119.049 44.8178C118.005 45.0336 116.903 45.0577 115.741 44.8901ZM112.176 34.4177L122.184 35.8617C122.258 34.9024 122.104 34.0287 121.722 33.2408C121.364 32.4347 120.845 31.7778 120.163 31.27C119.506 30.7441 118.735 30.4172 117.848 30.2893C116.982 30.1644 116.149 30.2598 115.349 30.5755C114.573 30.8731 113.9 31.3579 113.329 32.0299C112.761 32.6808 112.376 33.4767 112.176 34.4177ZM136.478 47.8818C135.148 47.6899 134.021 47.2041 133.099 46.4245C132.177 45.6448 131.494 44.7056 131.049 43.6068L129.627 53.4568L126.144 52.9542L129.507 29.6435L132.579 30.0867L132.149 33.0639C132.926 32.1629 133.864 31.4899 134.962 31.0449C136.061 30.5999 137.234 30.4673 138.479 30.647C139.619 30.8115 140.631 31.1946 141.514 31.7962C142.4 32.3767 143.134 33.1184 143.715 34.0212C144.296 34.9241 144.702 35.9203 144.933 37.0098C145.188 38.0811 145.233 39.1869 145.069 40.3271C144.84 41.9107 144.315 43.3114 143.492 44.5291C142.691 45.7499 141.675 46.6702 140.443 47.29C139.235 47.8917 137.914 48.089 136.478 47.8818ZM135.767 44.7402C136.506 44.8468 137.194 44.7844 137.831 44.553C138.489 44.3246 139.067 43.9769 139.566 43.51C140.085 43.0461 140.51 42.493 140.84 41.8509C141.169 41.2087 141.386 40.5287 141.49 39.8108C141.599 39.0507 141.576 38.3145 141.42 37.6023C141.264 36.89 140.98 36.2455 140.568 35.6687C140.176 35.0949 139.685 34.6145 139.094 34.2275C138.525 33.8436 137.87 33.5983 137.131 33.4917C136.688 33.4277 136.211 33.4452 135.701 33.544C135.191 33.6429 134.704 33.8096 134.239 34.0443C133.774 34.279 133.354 34.5741 132.979 34.9296C132.605 35.2851 132.322 35.6754 132.132 36.1005L131.506 40.4396C131.704 41.1579 132.006 41.8266 132.412 42.4456C132.822 43.0435 133.319 43.5571 133.904 43.9863C134.491 44.3945 135.113 44.6457 135.767 44.7402ZM147.005 49.0773L149.394 32.5128L158.263 33.7922C159.318 33.9445 160.155 34.27 160.773 34.7687C161.415 35.2493 161.861 35.8201 162.11 36.4812C162.363 37.1211 162.437 37.8 162.334 38.5179C162.203 39.4259 161.876 40.1978 161.353 40.8336C160.83 41.4695 160.131 41.9075 159.256 42.1476C160.166 42.5592 160.867 43.156 161.358 43.9381C161.872 44.7021 162.052 45.6226 161.897 46.6994C161.757 47.6707 161.406 48.4606 160.844 49.0693C160.285 49.6568 159.548 50.0571 158.634 50.27C157.743 50.4649 156.728 50.4801 155.588 50.3156L147.005 49.0773ZM150.646 47.1454L155.84 47.8948C156.283 47.9588 156.7 47.9111 157.089 47.7517C157.503 47.5743 157.841 47.3213 158.104 46.9928C158.37 46.6432 158.534 46.2573 158.594 45.835C158.661 45.3705 158.615 44.9435 158.456 44.5541C158.318 44.1677 158.084 43.8431 157.756 43.5801C157.448 43.3202 157.062 43.1568 156.598 43.0898L151.34 42.3312L150.646 47.1454ZM151.665 40.0825L156.352 40.7588C156.796 40.8228 157.202 40.7736 157.57 40.6112C157.941 40.4276 158.249 40.1595 158.494 39.8069C158.739 39.4542 158.892 39.0668 158.953 38.6445C159.041 38.0322 158.917 37.4753 158.58 36.9741C158.242 36.4728 157.746 36.1749 157.092 36.0805L152.341 35.3951L151.665 40.0825ZM172.033 53.0115C170.745 52.8257 169.606 52.4349 168.614 51.8392C167.646 51.2254 166.839 50.4731 166.191 49.5822C165.547 48.6701 165.087 47.6769 164.811 46.6025C164.559 45.51 164.516 44.3831 164.684 43.2218C164.909 41.6593 165.474 40.2858 166.378 39.1014C167.284 37.8958 168.438 36.9954 169.839 36.3999C171.243 35.7834 172.81 35.6 174.542 35.8498C176.273 36.0996 177.704 36.7156 178.834 37.6977C179.988 38.6617 180.821 39.8379 181.332 41.2265C181.842 42.615 181.991 44.0483 181.778 45.5263C181.742 45.7797 181.696 46.021 181.641 46.2502C181.59 46.4583 181.543 46.6347 181.5 46.7795L168.23 44.8649C168.153 45.8453 168.293 46.7385 168.651 47.5446C169.033 48.3325 169.564 48.991 170.242 49.5199C170.923 50.0277 171.686 50.3425 172.53 50.4644C173.459 50.5984 174.369 50.4926 175.26 50.1468C176.171 49.8042 176.83 49.2741 177.235 48.5566L180.089 49.8413C179.614 50.5918 178.96 51.2411 178.126 51.789C177.317 52.3189 176.389 52.7023 175.342 52.9392C174.297 53.155 173.195 53.1791 172.033 53.0115ZM168.468 42.5391L178.477 43.9831C178.55 43.0238 178.396 42.1501 178.014 41.3622C177.656 40.5561 177.137 39.8992 176.456 39.3914C175.799 38.8655 175.027 38.5386 174.14 38.4107C173.274 38.2858 172.441 38.3812 171.641 38.6969C170.866 38.9945 170.192 39.4793 169.621 40.1513C169.053 40.8022 168.669 41.5981 168.468 42.5391ZM192.77 56.0032C191.44 55.8113 190.314 55.3255 189.391 54.5459C188.469 53.7662 187.786 52.827 187.341 51.7282L185.92 61.5782L182.436 61.0756L185.799 37.7649L188.871 38.2081L188.441 41.1853C189.218 40.2843 190.156 39.6113 191.255 39.1663C192.353 38.7213 193.526 38.5887 194.771 38.7684C195.912 38.9329 196.923 39.316 197.806 39.9176C198.693 40.4981 199.426 41.2398 200.007 42.1426C200.588 43.0455 200.994 44.0417 201.225 45.1312C201.48 46.2025 201.525 47.3083 201.361 48.4485C201.132 50.0321 200.607 51.4328 199.785 52.6505C198.983 53.8713 197.967 54.7916 196.735 55.4114C195.527 56.0131 194.206 56.2104 192.77 56.0032ZM192.059 52.8616C192.798 52.9682 193.486 52.9058 194.123 52.6744C194.781 52.446 195.359 52.0983 195.858 51.6314C196.377 51.1675 196.802 50.6144 197.132 49.9723C197.462 49.3301 197.678 48.6501 197.782 47.9322C197.891 47.1721 197.868 46.4359 197.712 45.7237C197.557 45.0114 197.272 44.3669 196.86 43.7901C196.468 43.2163 195.977 42.7359 195.386 42.3489C194.817 41.965 194.162 41.7197 193.423 41.6131C192.98 41.5491 192.503 41.5666 191.993 41.6654C191.483 41.7643 190.996 41.931 190.531 42.1657C190.066 42.4004 189.646 42.6955 189.272 43.051C188.897 43.4064 188.614 43.7968 188.424 44.2219L187.798 48.561C187.996 49.2793 188.298 49.948 188.705 50.567C189.114 51.1649 189.611 51.6785 190.196 52.1077C190.784 52.5159 191.405 52.7671 192.059 52.8616ZM203.297 57.1987L205.687 40.6342L209.171 41.1368L208.22 47.7246L215.916 48.835L216.867 42.2472L220.351 42.7498L217.961 59.3143L214.477 58.8117L215.482 51.8438L207.786 50.7334L206.781 57.7013L203.297 57.1987ZM229.561 61.3112C228.252 61.1223 227.112 60.7316 226.142 60.1389C225.174 59.5251 224.368 58.7622 223.724 57.8502C223.1 56.9412 222.661 55.951 222.406 54.8796C222.154 53.7871 222.112 52.6602 222.28 51.4989C222.447 50.3376 222.806 49.2686 223.357 48.2918C223.907 47.3151 224.608 46.4894 225.46 45.8148C226.336 45.1221 227.323 44.6287 228.422 44.3345C229.545 44.0223 230.75 43.9591 232.038 44.1449C233.326 44.3308 234.454 44.7306 235.421 45.3444C236.413 45.9401 237.221 46.6924 237.844 47.6014C238.491 48.4923 238.941 49.484 239.193 50.5765C239.445 51.669 239.487 52.7959 239.319 53.9572C239.152 55.1185 238.793 56.1876 238.242 57.1643C237.695 58.1199 236.983 58.9441 236.107 59.6368C235.253 60.3325 234.264 60.8365 233.141 61.1487C232.043 61.4429 230.849 61.497 229.561 61.3112ZM225.854 52.0469C225.702 53.1027 225.786 54.0848 226.108 54.9934C226.43 55.9019 226.925 56.6523 227.594 57.2446C228.263 57.8368 229.062 58.2 229.991 58.334C230.899 58.465 231.757 58.341 232.566 57.962C233.4 57.5649 234.099 56.976 234.664 56.1954C235.232 55.3937 235.591 54.4755 235.74 53.4409C235.893 52.3852 235.808 51.403 235.487 50.4945C235.165 49.5859 234.659 48.834 233.969 48.2387C233.303 47.6253 232.516 47.2531 231.608 47.1221C230.679 46.9881 229.809 47.1211 228.997 47.5213C228.184 47.9214 227.496 48.5118 226.931 49.2924C226.368 50.0519 226.01 50.9701 225.854 52.0469ZM248.677 64.0691C247.389 63.8833 246.249 63.4925 245.258 62.8968C244.29 62.283 243.483 61.5307 242.835 60.6398C242.191 59.7277 241.731 58.7345 241.454 57.6601C241.203 56.5676 241.16 55.4407 241.328 54.2794C241.553 52.7169 242.118 51.3434 243.022 50.159C243.928 48.9534 245.082 48.053 246.483 47.4575C247.887 46.841 249.454 46.6576 251.186 46.9074C252.917 47.1572 254.348 47.7732 255.478 48.7553C256.632 49.7193 257.464 50.8955 257.975 52.2841C258.486 53.6726 258.635 55.1059 258.422 56.5839C258.385 56.8373 258.34 57.0786 258.285 57.3078C258.234 57.5159 258.187 57.6923 258.144 57.8371L244.874 55.9225C244.797 56.9029 244.937 57.7961 245.295 58.6022C245.677 59.3901 246.207 60.0486 246.886 60.5775C247.567 61.0853 248.33 61.4001 249.174 61.522C250.103 61.656 251.013 61.5502 251.903 61.2044C252.815 60.8618 253.474 60.3317 253.879 59.6142L256.733 60.8989C256.258 61.6494 255.604 62.2987 254.77 62.8466C253.961 63.3765 253.033 63.7599 251.986 63.9968C250.941 64.2126 249.839 64.2367 248.677 64.0691ZM245.112 53.5967L255.121 55.0407C255.194 54.0814 255.04 53.2077 254.658 52.4198C254.3 51.6137 253.781 50.9568 253.1 50.449C252.443 49.9231 251.671 49.5962 250.784 49.4683C249.918 49.3434 249.085 49.4388 248.285 49.7545C247.51 50.0521 246.836 50.5369 246.265 51.2089C245.697 51.8597 245.313 52.6557 245.112 53.5967ZM69.3266 76.2639L71.7164 59.6994L85.9688 61.7556L83.579 78.3201L80.0951 77.8175L82.0417 64.3252L74.7571 63.2742L72.8105 76.7665L69.3266 76.2639ZM97.1526 80.6017C95.8223 80.4098 94.6962 79.924 93.7741 79.1444C92.8519 78.3647 92.1684 77.4255 91.7234 76.3267L90.3023 86.1767L86.8184 85.6741L90.1815 62.3634L93.2537 62.8066L92.8241 65.7838C93.6007 64.8828 94.5385 64.2098 95.6373 63.7648C96.7361 63.3198 97.9083 63.1872 99.1541 63.3669C100.294 63.5314 101.306 63.9145 102.189 64.5161C103.075 65.0966 103.809 65.8383 104.39 66.7412C104.971 67.644 105.377 68.6402 105.608 69.7297C105.863 70.8011 105.908 71.9068 105.743 73.047C105.515 74.6306 104.99 76.0313 104.167 77.249C103.366 78.4698 102.35 79.3901 101.118 80.0099C99.9101 80.6116 98.5884 80.8089 97.1526 80.6017ZM96.4419 77.4601C97.1809 77.5667 97.8689 77.5043 98.5058 77.2729C99.1638 77.0445 99.742 76.6968 100.24 76.2299C100.76 75.766 101.185 75.213 101.514 74.5708C101.844 73.9286 102.061 73.2486 102.164 72.5307C102.274 71.7706 102.251 71.0344 102.095 70.3222C101.939 69.6099 101.655 68.9654 101.242 68.3886C100.851 67.8148 100.36 67.3344 99.7691 66.9474C99.1995 66.5635 98.5451 66.3182 97.8061 66.2116C97.3627 66.1476 96.886 66.1651 96.376 66.2639C95.866 66.3628 95.3785 66.5295 94.9135 66.7642C94.4486 66.9989 94.0288 67.294 93.6542 67.6495C93.2796 68.005 92.997 68.3953 92.8063 68.8204L92.1803 73.1595C92.3785 73.8778 92.6807 74.5465 93.0872 75.1655C93.4967 75.7635 93.9937 76.277 94.5784 76.7063C95.1662 77.1144 95.7873 77.3656 96.4419 77.4601ZM107.679 81.7972L110.065 65.2643L113.549 65.767L111.835 77.644L121.946 66.9462L125.114 67.4031L122.724 83.9676L119.24 83.465L120.917 71.8414L110.942 82.2678L107.679 81.7972ZM125.534 84.5347L125.982 81.4308C126.509 81.507 127.003 81.4489 127.462 81.2564C127.924 81.0428 128.357 80.6527 128.762 80.0861C129.17 79.4984 129.55 78.6587 129.902 77.567C130.253 76.4753 130.585 75.0684 130.898 73.3461L131.842 68.3739L143.656 70.0783L141.266 86.6428L137.782 86.1401L139.729 72.6478L134.471 71.8893L134.083 74.1289C133.679 76.3338 133.212 78.1523 132.682 79.5847C132.155 80.9959 131.544 82.0932 130.849 82.8767C130.178 83.6421 129.393 84.1539 128.494 84.4121C127.618 84.6522 126.632 84.6931 125.534 84.5347ZM152.842 88.6362C151.533 88.4473 150.393 88.0565 149.422 87.4639C148.455 86.8501 147.649 86.0872 147.004 85.1751C146.381 84.2662 145.942 83.276 145.687 82.2046C145.435 81.1121 145.393 79.9852 145.561 78.8239C145.728 77.6626 146.087 76.5935 146.637 75.6168C147.188 74.6401 147.889 73.8144 148.741 73.1397C149.617 72.4471 150.604 71.9536 151.702 71.6595C152.825 71.3473 154.031 71.2841 155.319 71.4699C156.607 71.6557 157.734 72.0555 158.702 72.6693C159.694 73.2651 160.501 74.0174 161.125 74.9264C161.772 75.8173 162.222 76.809 162.474 77.9015C162.725 78.994 162.768 80.1209 162.6 81.2822C162.433 82.4435 162.074 83.5126 161.523 84.4893C160.976 85.4449 160.264 86.2691 159.388 86.9618C158.533 87.6575 157.545 88.1615 156.422 88.4737C155.323 88.7678 154.13 88.822 152.842 88.6362ZM149.135 79.3719C148.983 80.4276 149.067 81.4098 149.389 82.3183C149.71 83.2269 150.206 83.9773 150.875 84.5696C151.543 85.1618 152.342 85.525 153.272 85.659C154.179 85.79 155.038 85.666 155.847 85.287C156.68 84.8899 157.38 84.301 157.945 83.5204C158.513 82.7187 158.872 81.8005 159.021 80.7659C159.173 79.7101 159.089 78.728 158.767 77.8194C158.446 76.9109 157.94 76.1589 157.25 75.5636C156.584 74.9503 155.797 74.5781 154.889 74.4471C153.96 74.3131 153.089 74.4461 152.277 74.8462C151.465 75.2464 150.777 75.8367 150.211 76.6174C149.649 77.3769 149.29 78.295 149.135 79.3719ZM163.326 89.8254L170.514 82.1329L166.19 73.3294L170.086 73.8914L173.633 81.1281L175.185 81.352L176.136 74.7642L179.714 75.2805L178.764 81.8683L180.379 82.1014L185.764 76.1533L189.66 76.7153L183.024 83.9379L187.776 93.3529L183.817 92.7818L179.941 85.1419L178.325 84.9089L177.325 91.845L173.746 91.3287L174.746 84.3925L173.194 84.1686L167.285 90.3965L163.326 89.8254ZM198.248 95.1871C196.96 95.0012 195.82 94.6105 194.829 94.0147C193.861 93.401 193.054 92.6486 192.406 91.7577C191.762 90.8457 191.302 89.8524 191.026 88.778C190.774 87.6855 190.731 86.5586 190.899 85.3973C191.124 83.8348 191.689 82.4613 192.593 81.2769C193.499 80.0714 194.653 79.1709 196.054 78.5755C197.458 77.9589 199.025 77.7756 200.757 78.0254C202.488 78.2752 203.919 78.8911 205.049 79.8732C206.203 80.8372 207.036 82.0135 207.546 83.402C208.057 84.7905 208.206 86.2238 207.993 87.7018C207.957 87.9552 207.911 88.1965 207.856 88.4257C207.805 88.6338 207.758 88.8103 207.715 88.955L194.445 87.0404C194.368 88.0208 194.508 88.9141 194.866 89.7201C195.248 90.5081 195.778 91.1665 196.457 91.6954C197.138 92.2032 197.901 92.518 198.745 92.6399C199.674 92.7739 200.584 92.6681 201.474 92.3224C202.386 91.9797 203.045 91.4496 203.45 90.7321L206.304 92.0168C205.829 92.7674 205.175 93.4166 204.341 93.9646C203.532 94.4944 202.604 94.8778 201.557 95.1147C200.512 95.3305 199.41 95.3546 198.248 95.1871ZM194.683 84.7147L204.692 86.1586C204.765 85.1993 204.611 84.3257 204.229 83.5377C203.871 82.7317 203.352 82.0747 202.671 81.5669C202.014 81.0411 201.242 80.7142 200.355 80.5862C199.489 80.4613 198.656 80.5567 197.856 80.8724C197.081 81.17 196.407 81.6548 195.836 82.3268C195.268 82.9777 194.884 83.7736 194.683 84.7147ZM209.624 96.5049L212.014 79.9404L215.498 80.4431L214.547 87.0309L222.244 88.1412L223.194 81.5534L226.678 82.0561L224.288 98.6206L220.804 98.1179L221.81 91.1501L214.113 90.0397L213.108 97.0076L209.624 96.5049ZM228.491 99.2269L230.876 82.6941L234.36 83.1968L232.647 95.0738L242.758 84.376L245.925 84.8329L243.535 101.397L240.051 100.895L241.728 89.2711L231.753 99.6976L228.491 99.2269ZM255.159 103.398C253.871 103.212 252.731 102.821 251.739 102.225C250.772 101.612 249.964 100.859 249.317 99.9683C248.673 99.0563 248.212 98.0631 247.936 96.9887C247.684 95.8962 247.642 94.7692 247.81 93.6079C248.035 92.0454 248.6 90.672 249.503 89.4876C250.41 88.282 251.564 87.3815 252.965 86.7861C254.368 86.1696 255.936 85.9862 257.667 86.236C259.399 86.4858 260.83 87.1017 261.96 88.0838C263.114 89.0479 263.946 90.2241 264.457 91.6127C264.968 93.0012 265.117 94.4345 264.904 95.9125C264.867 96.1659 264.822 96.4072 264.767 96.6364C264.715 96.8445 264.668 97.0209 264.626 97.1657L251.355 95.2511C251.279 96.2315 251.419 97.1247 251.777 97.9308C252.159 98.7187 252.689 99.3772 253.367 99.9061C254.048 100.414 254.811 100.729 255.656 100.851C256.585 100.985 257.495 100.879 258.385 100.533C259.297 100.19 259.955 99.6603 260.361 98.9428L263.214 100.227C262.74 100.978 262.086 101.627 261.252 102.175C260.443 102.705 259.515 103.088 258.467 103.325C257.423 103.541 256.32 103.565 255.159 103.398ZM251.594 92.9253L261.602 94.3692C261.676 93.4099 261.522 92.5363 261.14 91.7483C260.782 90.9423 260.262 90.2854 259.581 89.7776C258.924 89.2517 258.152 88.9248 257.266 88.7969C256.4 88.672 255.567 88.7674 254.767 89.083C253.991 89.3807 253.318 89.8655 252.747 90.5374C252.179 91.1883 251.794 91.9843 251.594 92.9253Z" fill="url(#paint1_linear_477_145)"/>
<defs>
<linearGradient id="paint0_linear_477_145" x1="287.498" y1="83.6726" x2="127.102" y2="-33.5768" gradientUnits="userSpaceOnUse">
<stop stop-color="#0B7EFF"/>
<stop offset="1" stop-color="#9B17FF"/>
</linearGradient>
<linearGradient id="paint1_linear_477_145" x1="273.581" y1="81.3381" x2="58.7816" y2="45.3189" gradientUnits="userSpaceOnUse">
<stop stop-color="#0C7EFF"/>
<stop offset="1" stop-color="#8425FE"/>
</linearGradient>
</defs>
</svg>
