<svg width="378" height="122" viewBox="0 0 378 122" fill="none" xmlns="http://www.w3.org/2000/svg">
<path d="M6.99707 6.67236C31.4971 41.6724 36.4971 37.1724 59.9971 47.6724M371.497 98.1725C303.998 78.1724 307.498 95.863 221.998 89.1729" stroke="url(#paint0_linear_477_143)" stroke-width="12" stroke-linecap="round" stroke-dasharray="32 32"/>
<path d="M84.1944 47.3172L89.5745 25.2434L102.726 28.4488L101.975 31.5267L92.3064 29.17L87.6765 48.1659L84.1944 47.3172ZM107.414 53.306C106.129 52.9928 105.032 52.4948 104.122 51.812C103.218 51.1085 102.489 50.272 101.934 49.3025C101.401 48.3381 101.058 47.3105 100.907 46.2196C100.761 45.108 100.827 43.9823 101.105 42.8423C101.382 41.7023 101.842 40.6725 102.483 39.7529C103.125 38.8333 103.901 38.0785 104.814 37.4884C105.752 36.8826 106.782 36.4859 107.904 36.2982C109.051 36.0948 110.257 36.1472 111.521 36.4553C112.786 36.7635 113.87 37.2693 114.774 37.9728C115.705 38.6607 116.437 39.4868 116.97 40.4512C117.529 41.4 117.882 42.4302 118.028 43.5417C118.174 44.6533 118.109 45.7791 117.831 46.9191C117.553 48.059 117.093 49.0888 116.452 50.0084C115.816 50.9073 115.029 51.6596 114.09 52.2654C113.173 52.8762 112.141 53.2833 110.993 53.4867C109.871 53.6744 108.678 53.6142 107.414 53.306ZM104.61 43.7297C104.358 44.766 104.348 45.7517 104.581 46.6869C104.814 47.622 105.235 48.4164 105.845 49.0699C106.454 49.7234 107.214 50.1613 108.126 50.3836C109.018 50.6008 109.884 50.5595 110.726 50.2596C111.593 49.944 112.346 49.4247 112.983 48.7017C113.625 47.958 114.07 47.0784 114.318 46.0628C114.57 45.0265 114.58 44.0407 114.347 43.1056C114.114 42.1704 113.682 41.3736 113.052 40.715C112.448 40.0407 111.7 39.595 110.809 39.3778C109.897 39.1555 109.018 39.2047 108.171 39.5253C107.324 39.8459 106.582 40.3677 105.945 41.0907C105.313 41.7929 104.868 42.6726 104.61 43.7297ZM122.741 56.7124L125.97 43.4682L120.591 42.1572L121.326 39.1415L135.534 42.6045L134.799 45.6202L129.389 44.3017L126.161 57.546L122.741 56.7124ZM141.358 61.5793C140.073 61.2661 138.976 60.7681 138.066 60.0853C137.162 59.3817 136.432 58.5453 135.878 57.5758C135.345 56.6114 135.002 55.5837 134.851 54.4929C134.705 53.3813 134.77 52.2555 135.048 51.1155C135.326 49.9756 135.786 48.9458 136.427 48.0262C137.068 47.1065 137.845 46.3517 138.758 45.7616C139.696 45.1559 140.726 44.7592 141.847 44.5714C142.995 44.368 144.201 44.4204 145.465 44.7286C146.729 45.0367 147.814 45.5426 148.718 46.2461C149.648 46.9339 150.38 47.7601 150.914 48.7245C151.473 49.6732 151.826 50.7034 151.972 51.815C152.118 52.9266 152.053 54.0523 151.775 55.1923C151.497 56.3323 151.037 57.3621 150.396 58.2817C149.76 59.1806 148.972 59.9329 148.034 60.5386C147.117 61.1494 146.084 61.5565 144.937 61.7599C143.815 61.9477 142.622 61.8874 141.358 61.5793ZM138.554 52.0029C138.301 53.0392 138.292 54.025 138.525 54.9601C138.758 55.8953 139.179 56.6896 139.788 57.3431C140.398 57.9967 141.158 58.4346 142.07 58.6568C142.961 58.8741 143.828 58.8327 144.67 58.5328C145.537 58.2172 146.289 57.698 146.927 56.975C147.569 56.2313 148.014 55.3516 148.262 54.336C148.514 53.2997 148.524 52.314 148.291 51.3788C148.057 50.4437 147.626 49.6468 146.996 48.9882C146.392 48.314 145.644 47.8682 144.753 47.651C143.841 47.4287 142.961 47.4779 142.115 47.7985C141.268 48.1192 140.526 48.641 139.889 49.3639C139.257 50.0662 138.812 50.9458 138.554 52.0029ZM152.83 64.0461L156.793 47.7861L165.498 49.9078C166.535 50.1604 167.337 50.5644 167.904 51.1199C168.497 51.6597 168.886 52.2705 169.071 52.9524C169.261 53.6136 169.27 54.2965 169.099 55.0012C168.881 55.8925 168.482 56.6296 167.901 57.2125C167.32 57.7954 166.582 58.1646 165.688 58.3199C166.555 58.8167 167.195 59.4778 167.609 60.3032C168.048 61.113 168.139 62.0464 167.881 63.1034C167.649 64.0568 167.224 64.8096 166.606 65.3617C165.994 65.8931 165.222 66.221 164.292 66.3455C163.387 66.4544 162.375 66.3724 161.255 66.0996L152.83 64.0461ZM156.639 62.4713L161.738 63.714C162.173 63.8201 162.592 63.8125 162.995 63.6911C163.424 63.554 163.785 63.3346 164.078 63.0327C164.376 62.7102 164.576 62.3416 164.677 61.9271C164.788 61.4711 164.783 61.0417 164.661 60.6388C164.561 60.241 164.36 59.8955 164.058 59.6024C163.777 59.3143 163.408 59.1147 162.952 59.0035L157.791 57.7456L156.639 62.4713ZM158.329 55.5383L162.93 56.6598C163.366 56.7658 163.774 56.7557 164.157 56.6292C164.544 56.4821 164.876 56.2447 165.154 55.9171C165.431 55.5895 165.62 55.2184 165.721 54.8038C165.868 54.2028 165.797 53.6366 165.51 53.1054C165.222 52.5741 164.757 52.2302 164.114 52.0736L159.451 50.937L158.329 55.5383ZM170.053 63.2046C170.306 62.1683 170.816 61.3374 171.583 60.7119C172.376 60.0708 173.341 59.6693 174.479 59.5074C175.621 59.3247 176.876 59.4001 178.244 59.7335C178.97 59.9103 179.693 60.1414 180.414 60.4269C181.155 60.7175 181.788 61.0475 182.313 61.4169L182.563 60.391C182.841 59.251 182.716 58.2764 182.189 57.4672C181.662 56.6579 180.755 56.0967 179.47 55.7835C178.558 55.5612 177.658 55.5174 176.769 55.652C175.885 55.7659 174.916 56.0019 173.862 56.3599L173.273 53.7789C174.527 53.3162 175.737 53.04 176.9 52.9503C178.085 52.8657 179.278 52.9699 180.48 53.2629C182.656 53.7933 184.225 54.7904 185.185 56.2542C186.172 57.7024 186.408 59.4835 185.892 61.5976L184.415 67.6601C184.319 68.0539 184.313 68.3489 184.397 68.545C184.501 68.7462 184.717 68.8975 185.043 68.9991L184.377 71.735C184.051 71.7214 183.761 71.6947 183.507 71.6548C183.253 71.6149 183.043 71.5747 182.877 71.5343C182.152 71.3575 181.646 71.0474 181.359 70.6042C181.071 70.1609 180.955 69.6933 181.009 69.2014L181.143 68.246C180.216 68.9862 179.142 69.4712 177.923 69.7009C176.703 69.9305 175.533 69.909 174.414 69.6362C173.336 69.3735 172.426 68.921 171.682 68.2786C170.943 67.6155 170.429 66.8424 170.139 65.9593C169.85 65.0763 169.821 64.158 170.053 63.2046ZM180.164 66.7228C180.478 66.514 180.741 66.2925 180.951 66.0585C181.162 65.8244 181.293 65.6037 181.343 65.3964L181.798 63.531C181.273 63.1616 180.702 62.8468 180.085 62.5865C179.473 62.3056 178.856 62.0893 178.234 61.9377C176.99 61.6346 175.914 61.6358 175.005 61.9413C174.117 62.2518 173.567 62.8423 173.355 63.7128C173.239 64.1896 173.252 64.6759 173.394 65.1717C173.558 65.6727 173.845 66.1159 174.256 66.5016C174.688 66.8923 175.266 67.176 175.992 67.3528C176.738 67.5347 177.488 67.5639 178.243 67.4404C178.998 67.317 179.638 67.0778 180.164 66.7228ZM186.598 72.2764L192.519 66.9017C191.564 66.4055 190.882 65.6903 190.473 64.7562C190.064 63.8221 190.021 62.6917 190.344 61.3652C190.592 60.3496 191.037 59.514 191.68 58.8582C192.344 58.2075 193.153 57.7681 194.109 57.54C195.065 57.3118 196.103 57.3342 197.222 57.607L204.373 59.3498L200.402 75.6409L196.982 74.8074L198.414 68.9314L195.741 68.2797L190.329 73.1858L186.598 72.2764ZM195.632 65.6182L199.02 66.4442L200.309 61.1589L197.137 60.386C196.267 60.1738 195.515 60.243 194.88 60.5934C194.267 60.9488 193.866 61.51 193.679 62.2769C193.492 63.0438 193.553 63.7394 193.862 64.3636C194.192 64.9929 194.782 65.4111 195.632 65.6182ZM74.0161 83.9489L77.9792 67.6889L86.6844 69.8106C87.7207 70.0632 88.5225 70.4672 89.0898 71.0227C89.6828 71.5625 90.0719 72.1733 90.257 72.8552C90.4472 73.5164 90.4564 74.1993 90.2846 74.904C90.0674 75.7953 89.6682 76.5324 89.0869 77.1153C88.5057 77.6982 87.768 78.0674 86.8738 78.2227C87.7408 78.7195 88.3811 79.3806 88.7948 80.206C89.2342 81.0158 89.3251 81.9492 89.0674 83.0062C88.835 83.9596 88.41 84.7124 87.7924 85.2645C87.1798 85.7959 86.4082 86.1239 85.4776 86.2484C84.5727 86.3572 83.5607 86.2752 82.4415 86.0024L74.0161 83.9489ZM77.8254 82.3741L82.9241 83.6168C83.3593 83.7229 83.7784 83.7153 84.1813 83.5939C84.6099 83.4568 84.9708 83.2374 85.264 82.9356C85.5622 82.613 85.7618 82.2444 85.8628 81.8299C85.974 81.3739 85.9688 80.9445 85.8475 80.5416C85.7468 80.1438 85.5455 79.7983 85.2437 79.5052C84.9626 79.2171 84.5941 79.0175 84.1381 78.9063L78.9772 77.6484L77.8254 82.3741ZM79.5152 75.4411L84.1165 76.5626C84.5517 76.6686 84.9604 76.6585 85.3426 76.532C85.7298 76.3849 86.0621 76.1475 86.3396 75.8199C86.617 75.4923 86.8063 75.1212 86.9073 74.7067C87.0538 74.1056 86.9832 73.5394 86.6955 73.0082C86.4078 72.4769 85.9427 72.133 85.3001 71.9764L80.6367 70.8398L79.5152 75.4411ZM98.5538 90.2589C97.2895 89.9507 96.1922 89.4527 95.2619 88.7649C94.3575 88.0614 93.6256 87.2352 93.0664 86.2865C92.5122 85.317 92.1491 84.2843 91.977 83.1884C91.8308 82.0768 91.8965 80.951 92.1744 79.8111C92.5482 78.2773 93.2416 76.9642 94.2544 75.8716C95.2723 74.7583 96.5069 73.9723 97.9582 73.5136C99.4144 73.0341 100.992 73.0015 102.692 73.4158C104.392 73.83 105.757 74.58 106.788 75.6656C107.844 76.7356 108.561 77.9861 108.936 79.4172C109.312 80.8482 109.323 82.2891 108.97 83.74C108.909 83.9887 108.841 84.2245 108.764 84.4475C108.693 84.6497 108.629 84.8208 108.573 84.9608L95.5467 81.7858C95.3765 82.7544 95.431 83.657 95.7101 84.4935C96.0151 85.3144 96.4798 86.0205 97.1042 86.6119C97.7336 87.1825 98.4629 87.5688 99.2919 87.7709C100.204 87.9932 101.12 87.9749 102.039 87.7159C102.979 87.462 103.685 86.9973 104.157 86.3219L106.875 87.8736C106.331 88.5753 105.618 89.159 104.736 89.6248C103.88 90.0748 102.919 90.3676 101.854 90.5033C100.794 90.6182 99.6937 90.5367 98.5538 90.2589ZM96.0066 79.4935L105.831 81.8881C105.996 80.9402 105.926 80.0558 105.621 79.2349C105.342 78.3984 104.888 77.6948 104.258 77.1242C103.655 76.5379 102.918 76.1386 102.047 75.9265C101.197 75.7193 100.359 75.7346 99.5327 75.9724C98.732 76.1944 98.0153 76.6126 97.3825 77.2269C96.7547 77.8204 96.2961 78.576 96.0066 79.4935ZM99.0381 69.7585L99.8716 66.3386L102.732 67.0358L101.898 70.4556L99.0381 69.7585ZM104.541 71.0997L105.375 67.6799L108.235 68.377L107.401 71.7969L104.541 71.0997ZM118.909 95.2202C117.603 94.9019 116.529 94.3106 115.685 93.4464C114.842 92.5821 114.252 91.5818 113.914 90.4454L111.557 100.114L108.137 99.2809L113.714 76.3987L116.73 77.1337L116.018 80.0562C116.877 79.2336 117.875 78.6534 119.011 78.3155C120.147 77.9777 121.327 77.9578 122.55 78.2558C123.669 78.5286 124.64 79.0067 125.461 79.69C126.288 80.3526 126.947 81.161 127.439 82.1153C127.931 83.0696 128.24 84.1001 128.365 85.2066C128.517 86.2975 128.456 87.4025 128.183 88.5217C127.804 90.0762 127.147 91.4202 126.212 92.5537C125.298 93.6923 124.198 94.5111 122.913 95.0103C121.653 95.4937 120.319 95.5637 118.909 95.2202ZM118.502 92.0249C119.228 92.2017 119.918 92.2054 120.575 92.036C121.251 91.8716 121.86 91.5808 122.401 91.1637C122.963 90.7516 123.438 90.2417 123.828 89.634C124.217 89.0264 124.498 88.3702 124.67 87.6655C124.852 86.9193 124.899 86.1843 124.812 85.4604C124.725 84.7366 124.504 84.0678 124.148 83.4542C123.814 82.8456 123.371 82.3205 122.82 81.8787C122.289 81.4421 121.661 81.1353 120.936 80.9585C120.501 80.8524 120.025 80.8242 119.507 80.8738C118.99 80.9234 118.489 81.0428 118.004 81.2319C117.519 81.4211 117.072 81.6747 116.666 81.9927C116.259 82.3107 115.94 82.6722 115.71 83.0772L114.671 87.3365C114.8 88.0704 115.037 88.765 115.382 89.42C115.733 90.0544 116.178 90.6132 116.719 91.0963C117.265 91.5588 117.86 91.8683 118.502 92.0249ZM136.566 99.5237C135.302 99.2156 134.204 98.7176 133.274 98.0297C132.37 97.3262 131.64 96.4897 131.086 95.5202C130.532 94.5508 130.171 93.5077 130.004 92.3911C129.858 91.2795 129.924 90.1537 130.202 89.0138C130.576 87.48 131.259 86.1643 132.251 85.0667C133.264 83.9741 134.485 83.196 135.916 82.7322C137.367 82.2735 138.953 82.2537 140.673 82.673C142.331 83.0772 143.681 83.8014 144.722 84.8456C145.789 85.8741 146.463 87.0705 146.745 88.4348L143.161 88.6811C142.955 87.9062 142.555 87.2488 141.962 86.709C141.395 86.1536 140.707 85.7773 139.899 85.5803C138.987 85.3581 138.099 85.3943 137.237 85.6892C136.401 85.9684 135.664 86.4694 135.026 87.1924C134.415 87.8997 133.978 88.7922 133.715 89.87C133.462 90.9064 133.45 91.9025 133.678 92.8583C133.911 93.7935 134.33 94.5982 134.934 95.2724C135.564 95.931 136.335 96.3714 137.247 96.5937C137.807 96.7301 138.368 96.7682 138.932 96.7079C139.521 96.632 140.053 96.4762 140.528 96.2406C141.008 95.9842 141.381 95.669 141.648 95.2949L144.763 97.1081C144.214 97.8306 143.511 98.4168 142.655 98.8669C141.819 99.322 140.879 99.6199 139.835 99.7606C138.816 99.8856 137.727 99.8066 136.566 99.5237ZM150.495 102.589L153.723 89.3451L148.345 88.0342L149.08 85.0185L163.288 88.4814L162.553 91.4972L157.143 90.1787L153.915 103.423L150.495 102.589ZM161.881 105.365L165.844 89.1046L169.233 89.9306L167.665 96.3662L169.281 96.7602L175.638 91.4915L179.431 92.416L171.575 98.8344L176.152 108.843L172.203 107.88L168.5 99.8305L166.915 99.444L165.27 106.191L161.881 105.365ZM178.679 104.42C178.932 103.383 179.442 102.552 180.209 101.927C181.002 101.286 181.967 100.884 183.105 100.722C184.247 100.54 185.502 100.615 186.87 100.948C187.596 101.125 188.319 101.356 189.04 101.642C189.781 101.932 190.415 102.262 190.939 102.632L191.19 101.606C191.467 100.466 191.343 99.4913 190.815 98.6821C190.288 97.8729 189.382 97.3116 188.097 96.9984C187.185 96.7762 186.284 96.7323 185.395 96.8669C184.511 96.9808 183.542 97.2168 182.489 97.5748L181.899 94.9938C183.154 94.5311 184.363 94.2549 185.526 94.1652C186.711 94.0806 187.904 94.1848 189.106 94.4778C191.282 95.0083 192.851 96.0054 193.812 97.4692C194.798 98.9173 195.034 100.698 194.518 102.813L193.041 108.875C192.945 109.269 192.939 109.564 193.023 109.76C193.127 109.961 193.343 110.112 193.67 110.214L193.003 112.95C192.677 112.936 192.387 112.91 192.133 112.87C191.879 112.83 191.67 112.79 191.504 112.749C190.778 112.572 190.272 112.262 189.985 111.819C189.698 111.376 189.581 110.908 189.635 110.416L189.769 109.461C188.842 110.201 187.769 110.686 186.549 110.916C185.329 111.145 184.16 111.124 183.04 110.851C181.963 110.588 181.052 110.136 180.308 109.494C179.57 108.83 179.055 108.057 178.766 107.174C178.476 106.291 178.447 105.373 178.679 104.42ZM188.79 107.938C189.104 107.729 189.367 107.507 189.578 107.273C189.788 107.039 189.919 106.819 189.97 106.611L190.424 104.746C189.899 104.377 189.328 104.062 188.711 103.801C188.099 103.52 187.482 103.304 186.86 103.153C185.617 102.85 184.54 102.851 183.631 103.156C182.743 103.467 182.193 104.057 181.981 104.928C181.865 105.404 181.878 105.891 182.021 106.387C182.184 106.888 182.471 107.331 182.882 107.717C183.314 108.107 183.893 108.391 184.618 108.568C185.364 108.75 186.115 108.779 186.869 108.655C187.624 108.532 188.264 108.293 188.79 107.938Z" fill="url(#paint1_linear_477_143)"/>
<defs>
<linearGradient id="paint0_linear_477_143" x1="469.999" y1="232.674" x2="-60.8103" y2="56.1371" gradientUnits="userSpaceOnUse">
<stop offset="0.192708" stop-color="#BC69FF"/>
<stop offset="0.990353" stop-color="#FF0068"/>
</linearGradient>
<linearGradient id="paint1_linear_477_143" x1="58.8792" y1="43.9261" x2="220.41" y2="86.2644" gradientUnits="userSpaceOnUse">
<stop stop-color="#EF1A8E"/>
<stop offset="1" stop-color="#CE4DD7"/>
</linearGradient>
</defs>
</svg>
