<svg width="411" height="154" viewBox="0 0 411 154" fill="none" xmlns="http://www.w3.org/2000/svg">
<path d="M404.498 6.67236C379.498 39.6722 376.998 39.6725 343.498 51.1725M6.49805 147.172C29.998 134.672 54.998 130.172 76.498 124.172" stroke="url(#paint0_linear_477_144)" stroke-width="12" stroke-linecap="round" stroke-dasharray="32 32"/>
<path d="M89.7285 107.532L84.1492 85.5074L87.6235 84.6273L91.9612 101.75L99.3801 81.649L102.637 80.8239L108.217 102.848L104.742 103.728L100.475 86.8844L93.1097 106.675L89.7285 107.532ZM112.889 101.665L108.779 85.441L112.191 84.5766L113.826 91.0288L121.364 89.1193L119.729 82.6671L123.141 81.8027L127.251 98.0262L123.839 98.8906L122.11 92.0662L114.572 93.9757L116.301 100.8L112.889 101.665ZM135.214 96.009L131.867 82.7944L126.5 84.1539L125.738 81.1449L139.914 77.5537L140.676 80.5627L135.279 81.93L138.626 95.1446L135.214 96.009ZM154.005 91.5789C152.744 91.8984 151.541 91.972 150.397 91.7997C149.268 91.6014 148.235 91.214 147.297 90.6375C146.353 90.0402 145.549 89.2977 144.884 88.4098C144.234 87.496 143.765 86.4704 143.477 85.333C143.089 83.8027 143.087 82.3177 143.471 80.8781C143.849 79.4178 144.572 78.1453 145.64 77.0606C146.702 75.9552 148.081 75.1877 149.777 74.7581C151.473 74.3285 153.03 74.3521 154.45 74.8289C155.884 75.2797 157.103 76.0494 158.105 77.138C159.107 78.2266 159.791 79.4947 160.158 80.9423C160.22 81.1905 160.27 81.4309 160.307 81.6637C160.339 81.8757 160.363 82.0567 160.379 82.2067L147.381 85.4993C147.684 86.4349 148.155 87.2069 148.793 87.8155C149.447 88.3981 150.188 88.8045 151.017 89.0348C151.84 89.2444 152.666 89.2444 153.493 89.0348C154.403 88.8043 155.203 88.3594 155.895 87.7001C156.607 87.0356 157.013 86.2945 157.114 85.4766L160.242 85.5755C160.089 86.4504 159.733 87.3001 159.171 88.1245C158.625 88.923 157.913 89.6315 157.036 90.25C156.153 90.8478 155.143 91.2907 154.005 91.5789ZM146.715 83.2584L156.517 80.7752C156.219 79.8603 155.744 79.1116 155.09 78.5289C154.451 77.9204 153.721 77.5113 152.897 77.3018C152.089 77.0663 151.251 77.0586 150.383 77.2786C149.535 77.4934 148.801 77.8993 148.182 78.4962C147.579 79.0673 147.141 79.7723 146.869 80.6114C146.593 81.4297 146.541 82.3121 146.715 83.2584ZM174.315 86.4339C173.012 86.764 171.786 86.7445 170.636 86.3756C169.486 86.0066 168.496 85.3992 167.665 84.5532L170.109 94.2005L166.697 95.0649L160.914 72.2341L163.922 71.4718L164.661 74.3877C165.035 73.2586 165.645 72.2788 166.491 71.4483C167.337 70.6178 168.37 70.048 169.59 69.7389C170.707 69.456 171.788 69.4241 172.834 69.6433C173.875 69.8419 174.836 70.2476 175.718 70.8606C176.599 71.4736 177.354 72.2396 177.983 73.1586C178.628 74.0517 179.091 75.0566 179.374 76.1733C179.767 77.7243 179.816 79.2195 179.52 80.6588C179.245 82.0929 178.657 83.3314 177.754 84.3742C176.868 85.3911 175.721 86.0777 174.315 86.4339ZM172.46 83.8009C173.183 83.6176 173.795 83.2974 174.296 82.8405C174.817 82.3784 175.219 81.8365 175.502 81.2147C175.805 80.5877 175.986 79.9145 176.046 79.1951C176.106 78.4757 176.047 77.7644 175.869 77.0613C175.68 76.3168 175.378 75.6451 174.962 75.0462C174.546 74.4473 174.038 73.96 173.437 73.5841C172.856 73.2031 172.219 72.9464 171.525 72.814C170.852 72.6764 170.153 72.6993 169.43 72.8826C168.995 72.9927 168.561 73.1906 168.128 73.4766C167.694 73.7625 167.307 74.1026 166.967 74.4969C166.626 74.8912 166.351 75.3241 166.14 75.7956C165.93 76.2671 165.817 76.7357 165.803 77.2014L166.88 81.4512C167.337 82.0396 167.871 82.5424 168.483 82.9596C169.09 83.3561 169.745 83.6412 170.449 83.815C171.148 83.968 171.818 83.9633 172.46 83.8009ZM182.121 79.0757C181.859 78.0417 181.92 77.0688 182.306 76.1569C182.706 75.2192 183.371 74.4125 184.3 73.737C185.224 73.0408 186.369 72.5198 187.734 72.174C188.458 71.9907 189.205 71.8564 189.976 71.7712C190.767 71.6807 191.481 71.6759 192.118 71.7567L191.858 70.7331C191.57 69.5957 191.004 68.7928 190.159 68.3246C189.314 67.8564 188.25 67.7847 186.968 68.1095C186.058 68.3401 185.242 68.7229 184.519 69.2581C183.791 69.7726 183.046 70.4346 182.283 71.2442L180.553 69.2395C181.445 68.2432 182.384 67.4331 183.371 66.8092C184.378 66.1799 185.481 65.7134 186.68 65.4096C188.852 64.8595 190.705 65.0063 192.239 65.8501C193.788 66.6679 194.83 68.1315 195.365 70.2409L196.897 76.2898C196.997 76.6827 197.129 76.9462 197.295 77.0802C197.482 77.209 197.743 77.2418 198.08 77.1787L198.771 79.9084C198.477 80.0491 198.208 80.1611 197.965 80.2447C197.722 80.3282 197.518 80.391 197.352 80.4329C196.629 80.6162 196.036 80.5793 195.575 80.322C195.113 80.0647 194.792 79.7062 194.609 79.2462L194.28 78.3392C193.808 79.4272 193.086 80.3583 192.116 81.1322C191.146 81.9062 190.102 82.4346 188.985 82.7175C187.91 82.99 186.893 83.0164 185.935 82.7969C184.972 82.5568 184.156 82.1143 183.486 81.4697C182.817 80.825 182.362 80.027 182.121 79.0757ZM192.702 77.4516C192.882 77.1199 193.01 76.8013 193.087 76.4958C193.164 76.1903 193.176 75.9341 193.123 75.7273L192.652 73.8661C192.015 73.7853 191.363 73.7744 190.696 73.8334C190.023 73.8717 189.377 73.9695 188.757 74.1266C187.516 74.441 186.565 74.9458 185.905 75.6412C185.266 76.3314 185.056 77.1107 185.276 77.9793C185.397 78.4549 185.636 78.8785 185.994 79.2499C186.373 79.6161 186.834 79.8733 187.378 80.0217C187.942 80.1648 188.587 80.1447 189.31 79.9613C190.055 79.7727 190.732 79.4472 191.341 78.9848C191.95 78.5224 192.404 78.0113 192.702 77.4516ZM202.011 79.0876L197.901 62.8641L201.283 62.0075L202.909 68.4287L204.522 68.0201L207.673 60.3888L211.457 59.4301L207.52 68.7791L216.249 75.4807L212.31 76.4787L205.269 71.0989L203.687 71.4997L205.392 78.2311L202.011 79.0876ZM222.701 73.8465L219.353 60.6319L213.987 61.9913L213.224 58.9824L227.401 55.3912L228.163 58.4002L222.765 59.7675L226.113 72.9821L222.701 73.8465ZM234.061 70.9685L229.959 54.776L233.372 53.9116L236.318 65.5442L241.584 51.7982L244.686 51.0123L248.796 67.2359L245.384 68.1003L242.5 56.7159L237.256 70.1591L234.061 70.9685ZM252.873 66.203L248.764 49.9794L257.449 47.7791C258.483 47.5172 259.381 47.4989 260.142 47.7241C260.919 47.9235 261.549 48.2811 262.031 48.797C262.509 49.2923 262.837 49.8914 263.015 50.5946C263.24 51.4838 263.233 52.322 262.992 53.1093C262.751 53.8965 262.272 54.568 261.555 55.1239C262.553 55.157 263.429 55.4414 264.18 55.9772C264.948 56.487 265.465 57.2693 265.732 58.324C265.973 59.2752 265.95 60.1394 265.663 60.9164C265.37 61.6727 264.842 62.3237 264.078 62.8694C263.329 63.3892 262.397 63.7905 261.28 64.0734L252.873 66.203ZM255.502 63.0282L260.59 61.7394C261.024 61.6294 261.391 61.4265 261.69 61.1306C262.004 60.8088 262.221 60.446 262.338 60.042C262.451 59.6174 262.455 59.1983 262.35 58.7847C262.235 58.3297 262.029 57.9527 261.733 57.6535C261.458 57.3491 261.118 57.138 260.714 57.0202C260.331 56.8973 259.912 56.8934 259.457 57.0087L254.308 58.3131L255.502 63.0282ZM253.75 56.1107L258.341 54.9477C258.775 54.8377 259.132 54.6373 259.41 54.3467C259.683 54.0354 259.866 53.6701 259.958 53.2507C260.049 52.8313 260.043 52.4148 259.938 52.0012C259.786 51.4015 259.459 50.9342 258.956 50.5995C258.453 50.2647 257.881 50.1786 257.24 50.341L252.587 51.5197L253.75 56.1107ZM270.08 61.8441L265.97 45.6206L269.382 44.7562L271.017 51.2084L278.555 49.2988L276.92 42.8466L280.332 41.9822L284.442 58.2058L281.03 59.0702L279.301 52.2457L271.763 54.1553L273.492 60.9797L270.08 61.8441ZM288.559 57.163L284.449 40.9394L287.861 40.075L289.213 45.4105L292.284 44.6325C294.207 44.1453 295.798 44.2594 297.058 44.9746C298.317 45.6899 299.149 46.8437 299.552 48.4361C299.825 49.5114 299.851 50.5281 299.632 51.486C299.412 52.4439 298.939 53.268 298.211 53.9585C297.505 54.6437 296.531 55.1434 295.29 55.4577L288.559 57.163ZM291.303 53.6619L294.095 52.9546C294.777 52.7817 295.294 52.5188 295.644 52.1659C295.99 51.7923 296.201 51.3648 296.277 50.8833C296.368 50.376 296.349 49.8638 296.218 49.3468C296.087 48.8298 295.876 48.3881 295.585 48.0216C295.289 47.6345 294.892 47.3718 294.395 47.2337C293.913 47.0696 293.321 47.0767 292.618 47.2548L289.857 47.9542L291.303 53.6619ZM303.634 53.3439L299.532 37.1514L302.945 36.287L307.047 52.4795L303.634 53.3439ZM311.157 51.4382L307.055 35.2456L310.468 34.3812L313.414 46.0138L318.68 32.2678L321.782 31.482L325.892 47.7055L322.48 48.5699L319.596 37.1855L314.352 50.6288L311.157 51.4382ZM314.006 31.6693C312.476 32.057 311.19 31.9756 310.148 31.4252C309.127 30.8696 308.47 30.0128 308.176 28.8547L310.41 28.2889C310.562 28.8886 310.884 29.3352 311.376 29.6286C311.889 29.9167 312.601 29.9455 313.511 29.715C314.4 29.4898 314.984 29.1439 315.262 28.6773C315.56 28.2055 315.67 27.6386 315.59 26.9766L317.823 26.4108C318.117 27.5689 317.937 28.6379 317.282 29.6179C316.649 30.5926 315.557 31.2764 314.006 31.6693ZM191.888 121.183C190.627 121.502 189.424 121.576 188.28 121.403C187.151 121.205 186.115 120.807 185.172 120.21C184.228 119.613 183.421 118.86 182.751 117.951C182.101 117.038 181.632 116.012 181.344 114.875C180.957 113.344 180.944 111.862 181.307 110.428C181.691 108.988 182.406 107.728 183.453 106.649C184.52 105.564 185.912 104.804 187.629 104.37C189.283 103.951 190.815 103.959 192.224 104.394C193.648 104.804 194.804 105.545 195.692 106.618L192.64 108.514C192.095 107.926 191.434 107.532 190.657 107.333C189.896 107.107 189.112 107.097 188.306 107.301C187.396 107.532 186.629 107.979 186.005 108.643C185.396 109.282 184.979 110.069 184.755 111.007C184.545 111.918 184.577 112.911 184.849 113.987C185.111 115.021 185.567 115.907 186.216 116.644C186.86 117.362 187.606 117.877 188.456 118.19C189.321 118.477 190.208 118.505 191.118 118.274C191.677 118.133 192.191 117.904 192.661 117.587C193.146 117.244 193.543 116.857 193.852 116.427C194.156 115.975 194.338 115.522 194.399 115.067L198.001 115.211C197.853 116.106 197.507 116.953 196.961 117.752C196.436 118.545 195.744 119.248 194.888 119.862C194.046 120.449 193.046 120.889 191.888 121.183ZM199.404 113.898C199.142 112.864 199.204 111.891 199.589 110.979C199.99 110.041 200.655 109.235 201.584 108.559C202.508 107.863 203.652 107.342 205.017 106.996C205.741 106.813 206.488 106.678 207.259 106.593C208.05 106.503 208.764 106.498 209.401 106.579L209.142 105.555C208.854 104.418 208.287 103.615 207.442 103.147C206.597 102.678 205.534 102.607 204.252 102.932C203.342 103.162 202.526 103.545 201.803 104.08C201.075 104.595 200.329 105.257 199.566 106.066L197.837 104.061C198.729 103.065 199.668 102.255 200.654 101.631C201.661 101.002 202.764 100.535 203.964 100.232C206.135 99.6815 207.988 99.8283 209.522 100.672C211.072 101.49 212.114 102.954 212.648 105.063L214.181 111.112C214.28 111.505 214.413 111.768 214.579 111.902C214.766 112.031 215.027 112.064 215.363 112.001L216.055 114.73C215.76 114.871 215.491 114.983 215.249 115.067C215.006 115.15 214.801 115.213 214.636 115.255C213.912 115.438 213.32 115.401 212.858 115.144C212.397 114.887 212.075 114.528 211.893 114.068L211.564 113.161C211.091 114.249 210.37 115.18 209.399 115.954C208.429 116.728 207.386 117.257 206.269 117.54C205.193 117.812 204.177 117.838 203.219 117.619C202.256 117.379 201.439 116.936 200.77 116.292C200.101 115.647 199.645 114.849 199.404 113.898ZM209.985 112.274C210.166 111.942 210.294 111.623 210.371 111.318C210.447 111.012 210.459 110.756 210.407 110.549L209.935 108.688C209.299 108.607 208.647 108.596 207.98 108.655C207.307 108.694 206.661 108.791 206.04 108.949C204.799 109.263 203.849 109.768 203.189 110.463C202.549 111.153 202.34 111.933 202.56 112.801C202.68 113.277 202.919 113.7 203.278 114.072C203.657 114.438 204.118 114.695 204.662 114.844C205.226 114.987 205.87 114.967 206.594 114.783C207.338 114.595 208.015 114.269 208.624 113.807C209.233 113.344 209.687 112.833 209.985 112.274ZM219.295 113.91L215.193 97.7171L218.605 96.8527L221.552 108.485L226.817 94.7393L229.92 93.9534L234.029 110.177L230.617 111.041L227.733 99.657L222.49 113.1L219.295 113.91ZM222.143 94.1407C220.613 94.5284 219.327 94.4471 218.285 93.8967C217.264 93.3411 216.607 92.4842 216.314 91.3261L218.547 90.7604C218.699 91.3601 219.021 91.8066 219.514 92.1C220.027 92.3882 220.738 92.417 221.648 92.1865C222.538 91.9612 223.121 91.6153 223.399 91.1488C223.698 90.677 223.807 90.1101 223.728 89.448L225.961 88.8822C226.254 90.0403 226.074 91.1093 225.42 92.0893C224.787 93.064 223.694 93.7478 222.143 94.1407ZM241.953 108.17L238.606 94.9551L233.239 96.3145L232.477 93.3056L246.653 89.7144L247.415 92.7233L242.018 94.0907L245.366 107.305L241.953 108.17Z" fill="url(#paint1_linear_477_144)"/>
<defs>
<linearGradient id="paint0_linear_477_144" x1="433" y1="19.6725" x2="-9.60065" y2="-5.61316" gradientUnits="userSpaceOnUse">
<stop offset="0.095567" stop-color="#BC69FF"/>
<stop offset="0.898855" stop-color="#9B17FF"/>
</linearGradient>
<linearGradient id="paint1_linear_477_144" x1="338.157" y1="43.9652" x2="83.7945" y2="115.211" gradientUnits="userSpaceOnUse">
<stop stop-color="#BA63FF"/>
<stop offset="1" stop-color="#A126FF"/>
</linearGradient>
</defs>
</svg>
