<svg width="466" height="457" viewBox="0 0 466 457" fill="none" xmlns="http://www.w3.org/2000/svg">
<path fill-rule="evenodd" clip-rule="evenodd" d="M166.753 131.537C193.388 119.304 219.114 111.074 248.388 109.34C287.477 107.025 328.935 97.3649 360.915 120.039C401.755 148.993 448.086 194.227 436.857 242.961C425.638 291.648 355.782 291.021 314.911 319.693C278.519 345.224 255.001 371.437 210.615 374.336C161.806 377.524 118.722 373.084 88.5872 334.475C58.5662 296.012 39.1959 242.842 56.7084 197.376C72.688 155.889 126.369 150.085 166.753 131.537Z" fill="#FC7A1F" fill-opacity="0.4"/>
<path fill-rule="evenodd" clip-rule="evenodd" d="M257.853 312.279C231.041 318.233 204.539 296.612 177.234 292.252C140.773 286.431 102.04 311 76.7486 283.365C44.4519 248.076 10.1005 196.51 29.4553 153.431C48.7917 110.393 113.07 125.232 156.042 106.878C194.305 90.5357 225.816 43.2822 267.268 49.6406C312.849 56.6325 357.084 88.3665 377.73 130.46C398.297 172.395 396 234.686 371.457 273.44C349.062 308.803 298.506 303.252 257.853 312.279Z" fill="#FC7A1F" fill-opacity="0.4"/>
<path fill-rule="evenodd" clip-rule="evenodd" d="M267.81 140.997C296.304 147.864 321.608 157.313 345.68 174.061C377.823 196.424 416.371 214.482 427.471 252.081C441.644 300.095 450.061 364.297 411.09 395.638C372.155 426.95 317.66 383.241 267.81 380.483C223.424 378.027 176.191 405.797 139.525 380.615C99.2051 352.924 80.6407 301.058 80.8504 252.081C81.0592 203.289 98.7338 149.533 140.621 124.645C178.841 101.936 224.607 130.586 267.81 140.997Z" fill="#FC7A1F"/>
</svg>
