<svg width="563" height="405" viewBox="0 0 563 405" fill="none" xmlns="http://www.w3.org/2000/svg">
<path fill-rule="evenodd" clip-rule="evenodd" d="M296.054 77.4375C357.123 71.6696 428.412 65.0723 469.412 97.5642C511.729 131.1 501.665 182.454 482.676 225.333C465.696 263.677 425.438 292.494 374.918 310.939C322.155 330.204 262.837 340.148 206.913 326.018C142.767 309.81 72.8814 280.331 64.6707 232.551C56.8162 186.843 125.199 157.302 172.474 125.61C208.381 101.539 246.993 82.0714 296.054 77.4375Z" fill="#0B7EFF" fill-opacity="0.4"/>
<path fill-rule="evenodd" clip-rule="evenodd" d="M426.115 129.622C471.69 159.031 524.745 193.451 516.071 236.668C507.119 281.275 445.176 308.964 386.635 326.339C334.285 341.878 277.226 338.637 224.757 323.134C169.957 306.943 121.001 281.179 100.23 241.716C76.4044 196.453 63.2139 139.507 109.524 104.211C153.825 70.4448 229.785 88.4773 294.47 93.6693C343.6 97.6128 389.501 105.995 426.115 129.622Z" fill="#0B7EFF" fill-opacity="0.4"/>
<path fill-rule="evenodd" clip-rule="evenodd" d="M393.285 85.1896C445.99 97.7028 507.409 112.44 514.326 155.37C521.465 199.68 473.321 245.477 424.77 280.598C381.353 312.004 327.025 327.508 272.721 330.14C216.004 332.888 161.412 324.856 128.343 294.964C90.4139 260.678 58.3446 212.099 89.2701 164.311C118.854 118.596 195.941 110.691 258.057 94.5254C305.235 82.2471 350.943 75.1365 393.285 85.1896Z" fill="#0B7EFF"/>
</svg>
