<svg width="482" height="544" viewBox="0 0 482 544" fill="none" xmlns="http://www.w3.org/2000/svg">
<path fill-rule="evenodd" clip-rule="evenodd" d="M228.779 184.884C287.473 181.164 356.014 176.961 401.466 211.984C448.379 248.132 447.085 300.75 435.665 344.298C425.453 383.24 390.918 411.503 344.636 428.689C296.297 446.638 240.007 454.73 183.029 438.108C117.675 419.042 44.5073 386.073 28.5434 336.474C13.2718 289.026 75.1591 261.045 116.071 230.073C147.144 206.548 181.624 187.872 228.779 184.884Z" fill="#9B17FF" fill-opacity="0.4"/>
<path fill-rule="evenodd" clip-rule="evenodd" d="M359.525 185.989C399.305 229.307 445.648 279.98 446.97 337.345C448.335 396.554 406.593 428.615 365.542 447.1C328.832 463.629 285.145 454.528 242.691 429.327C198.351 403.007 156.681 364.308 133.803 309.541C107.562 246.724 87.2249 169.09 115.773 125.502C143.083 83.8048 203.741 114.359 253.544 126.718C291.37 136.104 327.566 151.188 359.525 185.989Z" fill="#9B17FF" fill-opacity="0.4"/>
<path fill-rule="evenodd" clip-rule="evenodd" d="M256.592 172.223C313.347 187.644 379.576 205.785 411.294 253.602C444.031 302.956 425.826 352.341 400.963 389.873C378.729 423.437 336.922 439.042 287.57 440.372C236.025 441.761 180.135 431.255 131.57 397.134C75.8657 357.998 17.2525 303.179 18.1491 251.083C19.0069 201.245 86.613 194.733 135.331 178.621C172.333 166.383 210.996 159.834 256.592 172.223Z" fill="#9B17FF"/>
</svg>
