<svg width="481" height="469" viewBox="0 0 481 469" fill="none" xmlns="http://www.w3.org/2000/svg">
<path fill-rule="evenodd" clip-rule="evenodd" d="M368.45 276.83C349.837 317.146 354.449 360.923 311.447 374.248C269.07 387.379 241.462 355.859 206.464 327.023C177.264 302.963 149.178 279.108 135.656 244.265C119.378 202.32 105.223 155.641 124.662 116.233C145.758 73.4622 188.983 35.7048 237.902 36.9756C283.86 38.1694 307.04 90.8872 341.612 121.869C367.363 144.946 378.042 173.882 383.831 207.309C389.516 240.135 382.19 247.067 368.45 276.83Z" fill="#FF0168" fill-opacity="0.4"/>
<path fill-rule="evenodd" clip-rule="evenodd" d="M215.901 397.742C170.082 416.176 148.546 429.903 103.698 409.285C59.5036 388.967 55.553 361.26 49.3853 313.059C44.2392 272.841 37.416 240.609 53.1505 203.217C72.0917 158.204 96.3632 110.98 142.155 93.8641C191.853 75.2874 255.556 76.7199 294.015 113.184C330.146 147.441 308.534 205.989 312.719 255.581C315.836 292.52 335.942 331.873 315.057 362.539C294.548 392.654 249.727 384.134 215.901 397.742Z" fill="#FF0168" fill-opacity="0.4"/>
<path fill-rule="evenodd" clip-rule="evenodd" d="M387.313 180.819C417.787 219.685 462.579 237.658 455.277 286.474C448.082 334.581 404.38 345.348 359.808 364.706C322.617 380.857 286.153 396.026 245.857 391.337C197.348 385.692 145.231 375.544 116.03 336.337C84.3383 293.786 67.9595 232.208 92.2599 185.11C115.089 140.862 177.34 145.3 223.801 127.459C258.408 114.17 290.598 83.8929 325.869 95.4032C360.507 106.706 364.816 152.126 387.313 180.819Z" fill="#FF0168"/>
</svg>
