<svg width="425" height="363" viewBox="0 0 425 363" fill="none" xmlns="http://www.w3.org/2000/svg">
<path fill-rule="evenodd" clip-rule="evenodd" d="M380.229 181.415C379.055 218.381 393.09 260.936 367.194 287.346C340.534 314.534 296.847 304.722 258.769 305.283C214.061 305.942 164.978 319.357 130.549 290.834C92.5228 259.333 76.1413 206.675 80.3564 157.483C84.5506 108.534 111.605 62.7222 152.437 35.3914C189.713 10.4403 237.471 13.4117 281.298 22.983C318.72 31.1554 353.374 51.218 373.66 83.7036C391.635 112.49 381.306 147.497 380.229 181.415Z" fill="#2CD2FF" fill-opacity="0.4"/>
<path fill-rule="evenodd" clip-rule="evenodd" d="M206.216 40.3476C242.865 45.3187 286.639 35.7371 310.244 64.2133C334.545 93.5291 320.289 135.974 316.929 173.909C312.985 218.447 321.278 268.649 289.364 299.961C254.117 334.544 200.053 345.42 151.556 336.166C103.298 326.957 60.5135 295.333 37.5292 251.906C16.5462 212.259 24.4159 165.061 38.4459 122.451C50.4256 86.0689 73.9474 53.663 108.348 36.828C138.831 21.91 172.589 35.7864 206.216 40.3476Z" fill="#2CD2FF" fill-opacity="0.4"/>
<path fill-rule="evenodd" clip-rule="evenodd" d="M367.494 134.291C395.998 153.863 418.949 183.294 401.37 215.439C383.273 248.531 327.825 263.349 288.043 280.056C241.336 299.672 185.678 305.34 139.14 297.267C87.741 288.351 49.3685 261.299 35.8864 220.222C22.4709 179.347 33.2024 150.216 66.1302 110.959C96.1908 75.1197 141.612 69.9058 193.93 62.0296C250.112 57.9058 272.999 70.3626 304.024 89.0764C331.499 108.363 336.999 115.363 367.494 134.291Z" fill="#2CD2FF"/>
</svg>
