<svg width="438" height="346" viewBox="0 0 438 346" fill="none" xmlns="http://www.w3.org/2000/svg">
<path fill-rule="evenodd" clip-rule="evenodd" d="M178.931 28.1362C216.043 24.2376 255.369 24.4985 284.898 47.3104C317.762 72.6992 337.233 111.896 340.894 153.259C344.907 198.608 340.448 250.628 305.471 279.777C271.713 307.91 222.868 287.302 178.931 288.233C133.181 289.203 83.2179 313.104 46.9097 285.258C8.65068 255.915 -7.06314 200.42 2.94189 153.259C11.8922 111.069 57.9612 92.4508 93.1151 67.4575C119.773 48.5042 146.399 31.5538 178.931 28.1362Z" fill="#BC69FF" fill-opacity="0.4"/>
<path fill-rule="evenodd" clip-rule="evenodd" d="M274.81 5.93375C311.989 2.73423 351.303 3.7352 380.397 27.0989C412.777 53.1016 431.508 92.6582 434.389 134.082C437.549 179.499 432.111 231.426 396.591 259.911C362.31 287.404 313.861 265.88 269.915 265.984C224.155 266.093 173.751 289.05 137.973 260.525C100.273 230.468 85.6063 174.687 96.4972 127.722C106.24 85.7084 152.651 67.9602 188.269 43.6329C215.28 25.1847 242.219 8.73843 274.81 5.93375Z" fill="#BC69FF" fill-opacity="0.4"/>
<path fill-rule="evenodd" clip-rule="evenodd" d="M238.589 59.8667C275.905 59.8289 314.993 64.1574 342.003 89.9022C372.064 118.555 387.375 159.556 386.736 201.076C386.036 246.597 376.218 297.876 338.413 323.25C301.925 347.738 255.474 322.187 211.677 318.567C166.073 314.798 113.904 333.402 80.6723 301.948C45.6546 268.804 35.7672 211.981 50.5982 166.108C63.8658 125.071 111.614 111.319 149.165 90.0975C177.642 74.0043 205.878 59.8998 238.589 59.8667Z" fill="#BC69FF"/>
</svg>
